<svg version="1.1" id="Layer_1" xmlns="http://www.w3.org/2000/svg" xmlns:xlink="http://www.w3.org/1999/xlink" x="0px" y="0px"
	 width="100%" viewBox="0 0 3509 2481" enable-background="new 0 0 3509 2481" xml:space="preserve">
<path fill="#000000" opacity="1.000000" stroke="none" 
	d="
M2502.000000,2484.000000 
	C1668.000122,2484.000000 835.000305,2484.000000 2.000335,2484.000000 
	C2.000224,1656.666992 2.000224,829.333923 2.000112,2.000669 
	C1171.999512,2.000446 2341.999023,2.000446 3511.999023,2.000223 
	C3511.999268,829.332703 3511.999268,1656.665405 3511.999512,2483.999023 
	C3175.666748,2484.000000 2839.333252,2484.000000 2502.000000,2484.000000 
M2149.723633,1121.114502 
	C2149.825928,1124.146973 2149.928467,1127.179443 2149.559082,1131.438843 
	C2149.705811,1132.727051 2149.852539,1134.015381 2149.228027,1136.777466 
	C2149.471436,1142.039062 2149.714844,1147.300659 2149.569092,1153.536499 
	C2149.703369,1154.206421 2149.837646,1154.876343 2149.128418,1157.040039 
	C2148.180908,1172.584473 2146.525635,1188.124023 2146.415771,1203.674438 
	C2146.064453,1253.480347 2146.114502,1303.291016 2146.332031,1353.098511 
	C2146.575928,1409.000000 2147.169434,1464.900146 2147.615479,1520.800781 
	C2147.833252,1548.113892 2148.211426,1575.426758 2148.255127,1602.740112 
	C2148.352539,1663.723755 2148.394287,1724.707886 2148.198486,1785.691040 
	C2148.156982,1798.610962 2146.819824,1811.523071 2146.518311,1824.449097 
	C2146.458496,1827.009766 2148.407715,1829.617432 2149.639404,1833.524292 
	C2150.501953,1834.268433 2151.364746,1835.012573 2154.050293,1836.069702 
	C2285.253418,1836.069702 2416.456543,1836.069702 2548.327637,1836.069702 
	C2548.327637,1573.682861 2548.327637,1312.449707 2548.327637,1050.018066 
	C2553.952148,1049.337891 2559.057373,1048.187622 2564.163574,1048.182129 
	C2663.496338,1048.075684 2762.829102,1048.064819 2862.161865,1048.156738 
	C2873.113770,1048.166870 2884.062988,1049.017212 2895.018066,1049.293091 
	C2900.333008,1049.426880 2905.658691,1049.075439 2910.979736,1049.046997 
	C2917.550293,1049.011841 2924.121582,1049.060913 2930.692139,1049.119873 
	C2934.195312,1049.151245 2938.081543,1050.575806 2941.732910,1045.536865 
	C2942.391602,1040.762451 2943.586914,1035.988159 2943.587891,1031.213623 
	C2943.589600,1023.302490 2942.510986,1015.394043 2942.439697,1007.479492 
	C2942.253906,986.817932 2942.404785,966.153503 2942.321777,945.490662 
	C2942.308350,942.193726 2941.778809,938.898987 2941.870605,933.814697 
	C2941.892822,875.498596 2941.844727,817.182373 2941.964111,758.866455 
	C2942.031982,725.557617 2942.355469,692.249146 2942.614502,658.940918 
	C2942.641602,655.455994 2942.368164,652.245911 2937.078613,649.390991 
	C2933.085693,649.338928 2929.092773,649.234863 2925.099854,649.242371 
	C2782.656738,649.508789 2640.213379,649.785583 2496.342041,649.334900 
	C2492.348633,649.242737 2488.354980,649.069946 2484.361572,649.069824 
	C2133.374023,649.057434 1782.386108,648.926880 1431.398682,649.247742 
	C1393.467041,649.282410 1355.735107,647.574646 1318.024414,644.029419 
	C1316.203613,643.858276 1314.288818,644.687378 1312.417725,645.050659 
	C1325.391846,650.440247 1338.344360,650.808044 1351.430908,648.260742 
	C1353.820923,647.795471 1355.871582,647.713074 1358.145874,651.509949 
	C1359.799316,651.801453 1361.452759,652.092957 1363.197144,652.994995 
	C1363.354248,653.424866 1363.656250,653.690735 1363.971924,654.801147 
	C1364.094360,655.117310 1364.216675,655.433472 1363.917480,657.637634 
	C1363.875732,661.963074 1363.797852,666.288513 1363.797607,670.613953 
	C1363.791016,791.417542 1363.800537,912.221191 1363.758789,1033.024780 
	C1363.757324,1037.327759 1363.262695,1041.630371 1361.270264,1045.635376 
	C1350.372437,1045.629150 1339.474121,1045.550171 1328.577026,1045.633667 
	C1311.754517,1045.762695 1294.932861,1046.002808 1276.263062,1045.724976 
	C1254.768188,1045.679688 1233.273193,1045.562622 1211.778687,1045.618408 
	C1200.554932,1045.647583 1189.332153,1045.980835 1176.262573,1045.699829 
	C1162.742432,1045.655396 1149.221924,1045.515869 1135.702393,1045.591919 
	C1120.553467,1045.677002 1105.405518,1045.957397 1088.405273,1045.654663 
	C1060.983765,1045.603394 1033.562256,1045.505859 1006.140747,1045.529907 
	C998.233276,1045.536743 990.326050,1045.893677 980.825256,1045.598267 
	C977.587952,1045.703979 974.350708,1045.809692 970.678101,1044.096313 
	C970.397034,1034.733887 970.115967,1025.371460 970.191711,1014.160645 
	C970.075012,996.107727 969.958313,978.054810 970.200439,958.156860 
	C970.086548,935.440369 969.972595,912.723938 970.214905,888.159973 
	C970.100159,866.108582 969.985474,844.057129 970.233032,820.159485 
	C970.113464,802.773743 969.993896,785.388062 970.240051,766.158386 
	C970.119324,748.772827 969.998596,731.387329 970.247131,712.158630 
	C970.132202,692.447449 970.017334,672.736206 971.124023,652.441284 
	C975.014221,651.698425 979.148376,651.332458 980.935364,646.703064 
	C966.825745,647.567261 953.268677,649.096497 939.709106,649.118530 
	C822.389954,649.308899 705.069885,649.387512 587.751526,649.028992 
	C572.873596,648.983521 568.524841,653.830933 569.536194,667.856567 
	C570.181946,676.812195 570.171936,685.821838 570.266846,694.809265 
	C570.750793,740.621460 571.568665,786.434692 571.521484,832.246765 
	C571.455322,896.512329 570.587463,960.776672 570.398376,1025.042603 
	C570.357300,1038.980225 571.353821,1052.814941 570.792664,1066.882202 
	C569.146790,1108.141357 569.621033,1149.493774 569.658447,1190.809326 
	C569.750061,1292.115723 570.112488,1393.421753 570.267944,1494.728149 
	C570.365662,1558.387207 570.286255,1622.046387 570.285645,1685.705566 
	C570.285645,1688.371948 570.286743,1691.038208 570.273621,1693.704590 
	C570.055908,1738.020020 569.802490,1782.335327 569.652405,1826.651001 
	C569.629700,1833.352783 571.832275,1835.562988 578.281372,1836.081787 
	C580.267822,1836.241455 582.278809,1836.091431 584.278564,1836.091553 
	C710.263672,1836.097778 836.248718,1836.118896 962.233765,1836.035889 
	C965.649475,1836.033691 969.064453,1834.906372 973.897400,1833.409424 
	C973.414612,1827.859863 972.514160,1822.310547 972.510498,1816.760742 
	C972.430054,1694.986084 972.434387,1573.211548 972.530884,1451.437012 
	C972.533386,1448.291626 973.751953,1445.147461 976.225098,1442.102661 
	C1103.700928,1442.102661 1231.176758,1442.102661 1359.616333,1442.102661 
	C1359.616333,1446.526489 1359.616333,1450.106079 1359.616333,1453.685669 
	C1359.616455,1576.253784 1359.616089,1698.821899 1359.621826,1821.390015 
	C1359.621948,1824.385742 1359.278809,1827.471558 1359.906128,1830.338135 
	C1360.208984,1831.722900 1362.397217,1832.695190 1364.682983,1834.323242 
	C1365.036133,1834.338257 1365.389404,1834.353149 1366.777344,1835.743896 
	C1367.765381,1835.865601 1368.753418,1836.093628 1369.741455,1836.093750 
	C1497.221069,1836.115967 1624.700684,1836.129395 1752.180298,1836.058228 
	C1754.293823,1836.057129 1756.406860,1835.016479 1758.055786,1834.314209 
	C1758.055786,1834.314209 1758.484863,1834.544556 1760.153931,1834.118164 
	C1764.432739,1830.787476 1762.279175,1826.126953 1762.280884,1822.150757 
	C1762.393188,1568.183472 1762.381714,1314.216309 1762.381348,1060.249023 
	C1762.381348,1056.374512 1762.381348,1052.499878 1762.381348,1048.120605 
	C1766.274658,1048.120605 1768.902344,1048.120605 1771.529907,1048.120605 
	C1893.847412,1048.116333 2016.164917,1048.111938 2138.482422,1048.107910 
	C2140.148926,1048.107788 2141.817139,1048.163330 2143.481689,1048.104126 
	C2147.605957,1047.957520 2149.706543,1049.876831 2149.665771,1054.038940 
	C2149.613770,1059.368896 2149.550781,1064.698730 2148.565430,1070.491211 
	C2148.970459,1071.702026 2149.375244,1072.912964 2149.697998,1075.699219 
	C2149.635498,1077.800049 2149.573242,1079.900757 2148.812744,1082.082764 
	C2148.341553,1082.440796 2148.295410,1082.846802 2148.322998,1085.228394 
	C2148.310547,1088.890991 2148.110107,1092.564819 2148.326660,1096.213867 
	C2148.727783,1102.981201 2149.372559,1109.734009 2149.553223,1117.608643 
	C2149.713379,1118.359009 2149.873535,1119.109375 2149.723633,1121.114502 
z"/>
<path fill="#FF0046" opacity="1.000000" stroke="none" 
	d="
M1364.339111,655.749634 
	C1364.216675,655.433472 1364.094360,655.117310 1364.052246,653.981445 
	C1364.132568,653.161804 1364.091675,652.532593 1364.751953,652.460327 
	C1366.292480,652.418518 1367.172607,652.448975 1368.715088,652.962036 
	C1372.681152,653.631287 1375.984863,653.978027 1379.288818,653.980347 
	C1426.190063,654.013550 1473.091309,653.984192 1519.992554,654.001587 
	C1599.158569,654.030884 1678.324707,654.082642 1757.666992,655.038940 
	C1757.881348,659.944702 1757.952515,663.936523 1757.952759,667.928406 
	C1757.958618,790.036438 1757.953491,912.144531 1757.974243,1034.252563 
	C1757.974854,1038.236084 1758.228638,1042.219604 1758.197266,1046.216675 
	C1758.030273,1046.230225 1757.844482,1045.951050 1757.295166,1046.578613 
	C1756.499512,1049.498901 1756.038940,1051.791626 1756.038086,1054.084595 
	C1756.002808,1156.537964 1755.994507,1258.991455 1756.077759,1361.444824 
	C1756.080078,1364.293213 1757.113525,1367.140747 1757.800049,1370.785645 
	C1757.844727,1373.729858 1757.755249,1375.877197 1757.154053,1378.670654 
	C1756.430786,1382.589111 1756.061646,1385.860229 1756.034424,1389.134155 
	C1755.894287,1405.960815 1755.841919,1422.788330 1754.841797,1439.709106 
	C1750.600342,1439.837646 1747.276245,1439.902832 1743.952026,1439.902954 
	C1622.264038,1439.906860 1500.576172,1439.902100 1378.888184,1439.914185 
	C1374.569336,1439.914673 1370.250366,1440.074219 1365.394409,1440.103271 
	C1364.501709,1440.102905 1364.145996,1440.158813 1362.875854,1440.071777 
	C1357.629272,1439.906860 1353.297363,1439.882935 1348.965332,1439.863281 
	C1319.313721,1439.728394 1289.661987,1439.594360 1260.055908,1438.682983 
	C1260.776245,1432.823975 1264.766235,1434.209229 1267.847168,1434.021729 
	C1277.378906,1433.441528 1277.844727,1433.030151 1277.987061,1423.500000 
	C1278.056763,1418.842896 1277.998779,1414.183838 1278.000244,1409.525757 
	C1278.036987,1288.415771 1278.073853,1167.305786 1278.110840,1046.195801 
	C1294.932861,1046.002808 1311.754517,1045.762695 1328.577026,1045.633667 
	C1339.474121,1045.550171 1350.372437,1045.629150 1362.917725,1045.391235 
	C1365.050049,1041.940186 1365.956787,1038.733643 1365.958618,1035.526489 
	C1366.030640,912.123840 1366.032227,788.721130 1365.949219,665.318542 
	C1365.947144,662.128540 1364.899170,658.939270 1364.339111,655.749634 
z"/>
<path fill="#FF1657" opacity="1.000000" stroke="none" 
	d="
M982.418701,1046.090088 
	C990.326050,1045.893677 998.233276,1045.536743 1006.140747,1045.529907 
	C1033.562256,1045.505859 1060.983765,1045.603394 1089.238770,1046.827637 
	C1090.056763,1178.494019 1090.041260,1308.987427 1089.100952,1439.654907 
	C1052.797974,1439.706665 1017.419739,1439.584473 982.035400,1438.558594 
	C982.019470,1310.121338 982.006897,1182.587769 982.017639,1055.054077 
	C982.017883,1052.066040 982.279236,1049.078125 982.418701,1046.090088 
z"/>
<path fill="#FF054A" opacity="1.000000" stroke="none" 
	d="
M1277.187012,1045.960449 
	C1278.073853,1167.305786 1278.036987,1288.415771 1278.000244,1409.525757 
	C1277.998779,1414.183838 1278.056763,1418.842896 1277.987061,1423.500000 
	C1277.844727,1433.030151 1277.378906,1433.441528 1267.847168,1434.021729 
	C1264.766235,1434.209229 1260.776245,1432.823975 1259.130737,1438.847778 
	C1230.109985,1439.677856 1202.060059,1439.566162 1174.010132,1438.666748 
	C1174.399414,1435.648560 1174.209229,1431.824097 1175.268799,1431.439209 
	C1184.055298,1428.246948 1181.964844,1421.012451 1181.967651,1414.671631 
	C1182.013184,1309.891846 1182.099976,1205.111816 1181.904541,1100.332397 
	C1181.870728,1082.237061 1184.432373,1063.867554 1178.108887,1046.176880 
	C1189.332153,1045.980835 1200.554932,1045.647583 1211.778687,1045.618408 
	C1233.273193,1045.562622 1254.768188,1045.679688 1277.187012,1045.960449 
z"/>
<path fill="#FF2964" opacity="1.000000" stroke="none" 
	d="
M981.622009,1045.844238 
	C982.279236,1049.078125 982.017883,1052.066040 982.017639,1055.054077 
	C982.006897,1182.587769 982.019470,1310.121338 981.223755,1438.735840 
	C977.655701,1439.938232 974.893127,1440.060059 971.613831,1440.072754 
	C970.745483,1439.979614 970.393799,1439.995850 969.101929,1440.002686 
	C940.752441,1439.952148 913.343140,1439.911011 885.982422,1439.037598 
	C886.687378,1432.302490 887.911133,1426.399902 887.916443,1420.496338 
	C888.028442,1295.665894 888.003235,1170.835449 888.941895,1046.005127 
	C916.957092,1045.975464 944.035217,1045.945435 971.113403,1045.915405 
	C974.350708,1045.809692 977.587952,1045.703979 981.622009,1045.844238 
z"/>
<path fill="#FF0A4E" opacity="1.000000" stroke="none" 
	d="
M1177.185791,1045.938354 
	C1184.432373,1063.867554 1181.870728,1082.237061 1181.904541,1100.332397 
	C1182.099976,1205.111816 1182.013184,1309.891846 1181.967651,1414.671631 
	C1181.964844,1421.012451 1184.055298,1428.246948 1175.268799,1431.439209 
	C1174.209229,1431.824097 1174.399414,1435.648560 1173.085205,1438.832031 
	C1144.781982,1439.683716 1117.403809,1439.582275 1090.025757,1439.480835 
	C1090.041260,1308.987427 1090.056763,1178.494019 1090.164795,1047.076660 
	C1105.405518,1045.957397 1120.553467,1045.677002 1135.702393,1045.591919 
	C1149.221924,1045.515869 1162.742432,1045.655396 1177.185791,1045.938354 
z"/>
<path fill="#FE4F7F" opacity="1.000000" stroke="none" 
	d="
M970.895752,1045.005859 
	C944.035217,1045.945435 916.957092,1045.975464 888.004395,1045.994141 
	C863.743652,1047.763184 841.386108,1042.573120 818.002441,1044.477173 
	C818.002441,1049.948730 818.003174,1054.213623 818.002319,1058.478638 
	C817.976990,1185.569824 817.951477,1312.661011 816.995422,1439.811279 
	C802.683777,1439.780518 789.302734,1439.690674 775.944885,1438.699951 
	C775.968140,1307.637207 775.968140,1177.475464 775.968140,1046.053711 
	C760.417480,1046.053711 746.187988,1046.053711 731.027344,1046.044434 
	C719.373718,1046.067017 708.651184,1046.098755 697.019958,1046.101318 
	C689.387085,1046.126831 682.662903,1046.181519 675.008118,1046.182861 
	C662.693115,1046.171143 651.308655,1046.212524 638.996582,1046.185791 
	C626.031616,1046.164551 613.994324,1046.211670 601.044922,1046.179810 
	C592.825134,1045.972534 585.517639,1045.844116 578.135620,1044.810547 
	C578.091431,1034.618408 578.121765,1025.331177 579.079773,1016.028687 
	C709.949951,1016.011902 839.892395,1016.010437 969.834900,1016.008972 
	C970.115967,1025.371460 970.397034,1034.733887 970.895752,1045.005859 
z"/>
<path fill="#FE6D95" opacity="1.000000" stroke="none" 
	d="
M969.858704,890.007446 
	C969.972595,912.723938 970.086548,935.440369 969.094238,959.076172 
	C838.040161,960.017883 708.092285,960.040283 578.096191,959.119629 
	C578.014038,939.446472 577.980164,920.716553 577.945129,901.130859 
	C577.978760,896.851257 578.013489,893.427368 578.902527,889.998108 
	C584.665710,889.328613 589.580383,888.045715 594.482666,888.091003 
	C719.605591,889.246460 844.754578,885.417664 969.858704,890.007446 
z"/>
<path fill="#FE7FA2" opacity="1.000000" stroke="none" 
	d="
M970.036804,889.083740 
	C844.754578,885.417664 719.605591,889.246460 594.482666,888.091003 
	C589.580383,888.045715 584.665710,889.328613 578.855713,889.061401 
	C577.997559,866.097473 578.040527,844.064758 578.942932,822.020142 
	C599.935608,818.526611 620.254700,819.916138 640.480103,820.100586 
	C750.275330,821.101624 860.097473,817.507507 969.870789,822.005737 
	C969.985474,844.057129 970.100159,866.108582 970.036804,889.083740 
z"/>
<path fill="#FDABC2" opacity="1.000000" stroke="none" 
	d="
M578.083496,822.032104 
	C578.040527,844.064758 577.997559,866.097473 578.001404,889.066833 
	C578.013489,893.427368 577.978760,896.851257 577.567139,901.168091 
	C577.190369,902.061035 576.437805,902.172546 576.282837,901.235962 
	C576.148376,826.009766 576.093750,751.719971 576.296387,677.430786 
	C576.318604,669.286377 577.817993,661.146118 578.718384,652.142761 
	C583.056580,652.142761 586.654907,652.142761 590.253174,652.142761 
	C713.182922,652.142273 836.112732,652.134155 959.042480,652.178284 
	C962.662598,652.179565 966.282410,652.730408 969.902405,653.025024 
	C970.017334,672.736206 970.132202,692.447449 969.133179,713.079163 
	C838.429016,713.999695 708.838867,713.999695 578.086853,713.999695 
	C578.086853,732.968140 578.086853,750.505920 578.066895,768.976440 
	C578.059204,787.283508 578.071350,804.657837 578.083496,822.032104 
z"/>
<path fill="#FF5F8A" opacity="1.000000" stroke="none" 
	d="
M578.144409,960.062744 
	C708.092285,960.040283 838.040161,960.017883 968.914795,959.998657 
	C969.958313,978.054810 970.075012,996.107727 970.013306,1015.084839 
	C839.892395,1016.010437 709.949951,1016.011902 579.022095,1015.088135 
	C578.072693,996.129517 578.108521,978.096130 578.144409,960.062744 
z"/>
<path fill="#FE9BB7" opacity="1.000000" stroke="none" 
	d="
M578.086853,768.043701 
	C578.086853,750.505920 578.086853,732.968140 578.086853,713.999695 
	C708.838867,713.999695 838.429016,713.999695 968.948486,714.000732 
	C969.998596,731.387329 970.119324,748.772827 969.267151,767.060669 
	C960.786865,764.739563 953.293579,768.158020 945.787903,768.146301 
	C823.221191,767.954651 700.653931,768.029175 578.086853,768.043701 
z"/>
<path fill="#FE8FAD" opacity="1.000000" stroke="none" 
	d="
M578.066895,768.976440 
	C700.653931,768.029175 823.221191,767.954651 945.787903,768.146301 
	C953.293579,768.158020 960.786865,764.739563 969.084229,767.982666 
	C969.993896,785.388062 970.113464,802.773743 970.051880,821.082642 
	C860.097473,817.507507 750.275330,821.101624 640.480103,820.100586 
	C620.254700,819.916138 599.935608,818.526611 578.942932,822.020142 
	C578.071350,804.657837 578.059204,787.283508 578.066895,768.976440 
z"/>
<path fill="#FDABC2" opacity="1.000000" stroke="none" 
	d="
M1365.742554,1834.368164 
	C1365.389404,1834.353149 1365.036133,1834.338257 1364.351807,1833.169067 
	C1364.108398,1805.333618 1364.196167,1778.652344 1364.709717,1751.981689 
	C1365.135742,1751.992310 1365.987549,1752.012207 1365.991211,1752.948730 
	C1365.998047,1761.214233 1365.765381,1768.553101 1366.072266,1775.869385 
	C1366.371948,1783.015747 1364.578979,1790.380859 1367.810059,1797.964478 
	C1497.852173,1797.964478 1627.743652,1797.964478 1757.741455,1798.897339 
	C1758.060303,1811.401611 1758.272583,1822.973145 1758.484863,1834.544556 
	C1758.484863,1834.544556 1758.055786,1834.314209 1757.330078,1834.170654 
	C1754.940186,1833.960815 1753.276001,1833.836670 1751.611816,1833.836548 
	C1625.642700,1833.828003 1499.673706,1833.826050 1373.704590,1833.852417 
	C1371.050537,1833.852905 1368.396606,1834.188721 1365.742554,1834.368164 
z"/>
<path fill="#F6F5F6" opacity="1.000000" stroke="none" 
	d="
M970.513184,652.733154 
	C966.282410,652.730408 962.662598,652.179565 959.042480,652.178284 
	C836.112732,652.134155 713.182922,652.142273 590.253174,652.142761 
	C586.654907,652.142761 583.056580,652.142761 578.718384,652.142761 
	C577.817993,661.146118 576.318604,669.286377 576.296387,677.430786 
	C576.093750,751.719971 576.148376,826.009766 576.208923,902.157227 
	C576.230286,936.971069 576.127747,969.927063 576.130859,1002.883057 
	C576.132263,1017.188110 576.351013,1031.493164 576.396118,1046.744629 
	C576.285034,1049.023071 576.217224,1050.354858 576.217163,1051.686768 
	C576.211853,1178.942627 576.210022,1306.198486 576.223755,1433.454346 
	C576.223999,1435.780640 576.413513,1438.106934 576.486084,1441.342407 
	C576.457458,1572.440308 576.457458,1702.629150 576.457458,1833.177856 
	C580.015137,1833.418701 582.285400,1833.707031 584.555603,1833.706543 
	C712.875427,1833.681152 841.195312,1833.631592 970.260742,1833.745728 
	C971.497498,1834.039185 971.988586,1834.171387 972.479736,1834.303711 
	C969.064453,1834.906372 965.649475,1836.033691 962.233765,1836.035889 
	C836.248718,1836.118896 710.263672,1836.097778 584.278564,1836.091553 
	C582.278809,1836.091431 580.267822,1836.241455 578.281372,1836.081787 
	C571.832275,1835.562988 569.629700,1833.352783 569.652405,1826.651001 
	C569.802490,1782.335327 570.055908,1738.020020 570.273621,1693.704590 
	C570.286743,1691.038208 570.285645,1688.371948 570.285645,1685.705566 
	C570.286255,1622.046387 570.365662,1558.387207 570.267944,1494.728149 
	C570.112488,1393.421753 569.750061,1292.115723 569.658447,1190.809326 
	C569.621033,1149.493774 569.146790,1108.141357 570.792664,1066.882202 
	C571.353821,1052.814941 570.357300,1038.980225 570.398376,1025.042603 
	C570.587463,960.776672 571.455322,896.512329 571.521484,832.246765 
	C571.568665,786.434692 570.750793,740.621460 570.266846,694.809265 
	C570.171936,685.821838 570.181946,676.812195 569.536194,667.856567 
	C568.524841,653.830933 572.873596,648.983521 587.751526,649.028992 
	C705.069885,649.387512 822.389954,649.308899 939.709106,649.118530 
	C953.268677,649.096497 966.825745,647.567261 980.935364,646.703064 
	C979.148376,651.332458 975.014221,651.698425 970.513184,652.733154 
z"/>
<path fill="#F6F5F6" opacity="1.000000" stroke="none" 
	d="
M1759.319336,1834.331299 
	C1758.272583,1822.973145 1758.060303,1811.401611 1757.849609,1797.968018 
	C1757.789917,1781.391968 1757.728760,1766.678101 1757.771973,1751.034424 
	C1757.789429,1735.376953 1757.702637,1720.648926 1757.715332,1704.994019 
	C1757.735840,1687.360229 1757.656616,1670.653320 1757.699219,1653.020264 
	C1757.729614,1633.370850 1757.638306,1614.647583 1757.674072,1595.000244 
	C1757.708862,1574.700562 1757.616577,1555.325073 1757.669800,1535.025635 
	C1757.709717,1518.048096 1757.604126,1501.994629 1757.648926,1485.019043 
	C1757.750366,1469.367065 1757.701538,1454.637207 1757.855957,1438.995361 
	C1757.927979,1418.063599 1757.796997,1398.044067 1757.665894,1378.024414 
	C1757.755249,1375.877197 1757.844727,1373.729858 1758.010376,1369.869995 
	C1758.114624,1262.078369 1758.143555,1155.999390 1758.156982,1049.920410 
	C1758.157227,1048.597290 1757.953369,1047.274170 1757.844482,1045.951050 
	C1757.844482,1045.951050 1758.030273,1046.230225 1759.107666,1046.160522 
	C1771.476196,1045.970337 1782.767334,1045.849854 1794.987549,1045.806396 
	C1808.642334,1045.815186 1821.368164,1045.747192 1835.022217,1045.750610 
	C1848.653198,1045.751221 1861.355957,1045.680420 1874.986084,1045.715088 
	C1887.958130,1045.749390 1900.002930,1045.678101 1912.975830,1045.716797 
	C1927.282349,1045.754395 1940.661011,1045.682007 1954.968140,1045.722778 
	C1969.946045,1045.758667 1983.995483,1045.681519 1998.972778,1045.719849 
	C2023.282715,1045.764038 2046.664795,1045.692627 2070.709473,1045.731689 
	C2072.261719,1045.771240 2073.151611,1045.700439 2074.899902,1045.783569 
	C2079.821533,1045.842163 2083.884033,1045.746582 2088.881348,1045.764282 
	C2110.483154,1046.041260 2131.150635,1046.204834 2151.856201,1047.279785 
	C2151.936035,1067.462524 2151.977783,1086.733643 2151.973877,1106.669189 
	C2151.952393,1108.220825 2151.976318,1109.107910 2151.472900,1110.483276 
	C2150.602539,1112.812012 2150.259277,1114.652466 2149.916016,1116.492920 
	C2149.372559,1109.734009 2148.727783,1102.981201 2148.326660,1096.213867 
	C2148.110107,1092.564819 2148.310547,1088.890991 2148.836182,1084.229004 
	C2149.770752,1082.869141 2149.824707,1082.459717 2149.510986,1082.001587 
	C2149.573242,1079.900757 2149.635498,1077.800049 2149.879395,1074.225830 
	C2149.871338,1071.844604 2149.681885,1070.936646 2149.492676,1070.028687 
	C2149.550781,1064.698730 2149.613770,1059.368896 2149.665771,1054.038940 
	C2149.706543,1049.876831 2147.605957,1047.957520 2143.481689,1048.104126 
	C2141.817139,1048.163330 2140.148926,1048.107788 2138.482422,1048.107910 
	C2016.164917,1048.111938 1893.847412,1048.116333 1771.529907,1048.120605 
	C1768.902344,1048.120605 1766.274658,1048.120605 1762.381348,1048.120605 
	C1762.381348,1052.499878 1762.381348,1056.374512 1762.381348,1060.249023 
	C1762.381714,1314.216309 1762.393188,1568.183472 1762.280884,1822.150757 
	C1762.279175,1826.126953 1764.432739,1830.787476 1759.319336,1834.331299 
z"/>
<path fill="#F6F5F6" opacity="1.000000" stroke="none" 
	d="
M2940.283691,1046.269409 
	C2938.081543,1050.575806 2934.195312,1049.151245 2930.692139,1049.119873 
	C2924.121582,1049.060913 2917.550293,1049.011841 2910.979736,1049.046997 
	C2905.658691,1049.075439 2900.333008,1049.426880 2895.018066,1049.293091 
	C2884.062988,1049.017212 2873.113770,1048.166870 2862.161865,1048.156738 
	C2762.829102,1048.064819 2663.496338,1048.075684 2564.163574,1048.182129 
	C2559.057373,1048.187622 2553.952148,1049.337891 2548.327637,1050.018066 
	C2548.327637,1312.449707 2548.327637,1573.682861 2548.327637,1836.069702 
	C2416.456543,1836.069702 2285.253418,1836.069702 2153.112305,1835.342041 
	C2152.149170,1834.234253 2152.124268,1833.854126 2153.023926,1833.583618 
	C2284.080566,1833.693237 2414.212646,1833.693237 2545.462158,1833.693237 
	C2545.462158,1829.097534 2545.464600,1825.524170 2545.461670,1821.950806 
	C2545.433838,1787.643555 2545.422607,1753.336426 2545.351562,1719.029175 
	C2545.343994,1715.385620 2544.985352,1711.742676 2545.060303,1707.190674 
	C2545.151855,1681.553101 2544.972656,1656.824341 2545.059814,1631.184937 
	C2545.146973,1609.526245 2544.967529,1588.778198 2545.055908,1567.129150 
	C2545.145020,1544.855347 2544.966553,1523.482422 2545.057617,1501.198364 
	C2545.159912,1480.902100 2544.993408,1461.516968 2545.095459,1441.218506 
	C2545.219727,1424.891479 2545.075684,1409.477783 2545.173340,1393.154541 
	C2545.445557,1370.772827 2545.548096,1349.300415 2545.472656,1327.828735 
	C2545.440430,1318.598755 2545.039551,1309.370239 2545.085693,1299.225342 
	C2545.210693,1282.907715 2545.056152,1267.505859 2545.153564,1251.194580 
	C2545.260010,1233.563721 2545.114258,1216.842163 2545.218750,1199.199951 
	C2545.327881,1182.230103 2545.186768,1166.180908 2545.269043,1149.213135 
	C2545.403320,1134.237183 2545.314453,1120.179932 2545.410156,1105.195923 
	C2545.761719,1084.911133 2545.928955,1065.552979 2546.156006,1046.043213 
	C2546.215576,1045.891602 2545.941650,1045.715210 2546.875977,1045.828979 
	C2674.861572,1045.955566 2801.912598,1045.972900 2928.963623,1045.952148 
	C2931.924561,1045.951660 2934.885742,1045.525024 2938.433350,1045.287598 
	C2939.337402,1045.506836 2939.654785,1045.735596 2940.049316,1046.041504 
	C2940.126221,1046.118652 2940.283691,1046.269409 2940.283691,1046.269409 
z"/>
<path fill="#F6F5F6" opacity="1.000000" stroke="none" 
	d="
M2149.430420,1832.203491 
	C2148.407715,1829.617432 2146.458496,1827.009766 2146.518311,1824.449097 
	C2146.819824,1811.523071 2148.156982,1798.610962 2148.198486,1785.691040 
	C2148.394287,1724.707886 2148.352539,1663.723755 2148.255127,1602.740112 
	C2148.211426,1575.426758 2147.833252,1548.113892 2147.615479,1520.800781 
	C2147.169434,1464.900146 2146.575928,1409.000000 2146.332031,1353.098511 
	C2146.114502,1303.291016 2146.064453,1253.480347 2146.415771,1203.674438 
	C2146.525635,1188.124023 2148.180908,1172.584473 2149.425293,1157.241211 
	C2149.785889,1160.996826 2149.626709,1164.572876 2149.972168,1168.099609 
	C2150.368896,1172.146973 2151.213379,1176.150391 2151.838379,1181.071777 
	C2151.893799,1188.643311 2151.974121,1195.315918 2151.963379,1202.922974 
	C2151.928955,1221.900879 2151.986084,1239.944458 2151.943115,1258.922363 
	C2151.916748,1276.563721 2151.990479,1293.270874 2151.942383,1310.910156 
	C2151.864746,1342.561768 2151.909180,1373.281250 2151.824219,1404.930786 
	C2151.789551,1423.906372 2151.883545,1441.951782 2151.833496,1460.925781 
	C2151.799561,1479.231201 2151.909424,1496.608032 2151.858398,1514.911865 
	C2151.799316,1537.223145 2151.901855,1558.607544 2151.834229,1580.851318 
	C2151.568115,1585.783813 2151.472168,1589.856934 2150.847168,1594.576172 
	C2150.106934,1596.856812 2149.712891,1598.490967 2149.711426,1600.125366 
	C2149.660400,1662.258667 2149.625977,1724.392090 2149.696289,1786.525269 
	C2149.699219,1789.029297 2150.738770,1791.532349 2151.380127,1794.965576 
	C2151.459473,1807.887329 2151.453857,1819.879517 2150.926025,1831.845337 
	C2150.079102,1831.947144 2149.754883,1832.075317 2149.430420,1832.203491 
z"/>
<path fill="#FDABC2" opacity="1.000000" stroke="none" 
	d="
M1357.322876,650.026123 
	C1355.871582,647.713074 1353.820923,647.795471 1351.430908,648.260742 
	C1338.344360,650.808044 1325.391846,650.440247 1312.417725,645.050659 
	C1314.288818,644.687378 1316.203613,643.858276 1318.024414,644.029419 
	C1355.735107,647.574646 1393.467041,649.282410 1431.398682,649.247742 
	C1782.386108,648.926880 2133.374023,649.057434 2484.361572,649.069824 
	C2488.354980,649.069946 2492.348633,649.242737 2497.007812,650.201477 
	C2497.750244,651.396240 2497.826904,651.724365 2497.441895,652.209656 
	C2496.980225,652.366760 2496.053467,652.056702 2495.492188,651.432251 
	C2490.624512,650.597290 2486.317871,650.202881 2482.011475,650.202515 
	C2130.420654,650.174866 1778.829834,650.180908 1427.239014,650.172241 
	C1403.933594,650.171631 1380.628296,650.077026 1357.322876,650.026123 
z"/>
<path fill="#F6F5F6" opacity="1.000000" stroke="none" 
	d="
M1364.283813,1751.971069 
	C1364.196167,1778.652344 1364.108398,1805.333618 1363.876221,1832.934570 
	C1362.397217,1832.695190 1360.208984,1831.722900 1359.906128,1830.338135 
	C1359.278809,1827.471558 1359.621948,1824.385742 1359.621826,1821.390015 
	C1359.616089,1698.821899 1359.616455,1576.253784 1359.616333,1453.685669 
	C1359.616333,1450.106079 1359.616333,1446.526489 1359.616333,1442.102661 
	C1231.176758,1442.102661 1103.700928,1442.102661 974.856689,1441.831299 
	C973.035706,1441.100464 972.583069,1440.641235 972.130493,1440.181885 
	C974.893127,1440.060059 977.655701,1439.938232 981.229980,1439.639404 
	C1017.419739,1439.584473 1052.797974,1439.706665 1089.100952,1439.654907 
	C1117.403809,1439.582275 1144.781982,1439.683716 1173.084961,1439.619873 
	C1202.060059,1439.566162 1230.109985,1439.677856 1259.085205,1439.624756 
	C1289.661987,1439.594360 1319.313721,1439.728394 1348.965332,1439.863281 
	C1353.297363,1439.882935 1357.629272,1439.906860 1362.905518,1440.994263 
	C1363.877808,1449.670288 1363.899414,1457.280762 1363.935181,1464.891235 
	C1364.096680,1499.298950 1364.262207,1533.706543 1364.264160,1569.023560 
	C1364.140503,1579.964600 1364.179077,1589.996216 1364.093750,1600.954346 
	C1364.015137,1615.251099 1364.060425,1628.621460 1364.031494,1642.927246 
	C1364.066162,1679.898682 1364.175049,1715.934937 1364.283813,1751.971069 
z"/>
<path fill="#F6F5F6" opacity="1.000000" stroke="none" 
	d="
M1357.734375,650.768066 
	C1380.628296,650.077026 1403.933594,650.171631 1427.239014,650.172241 
	C1778.829834,650.180908 2130.420654,650.174866 2482.011475,650.202515 
	C2486.317871,650.202881 2490.624512,650.597290 2494.985352,651.511475 
	C2494.703369,652.276978 2494.366943,652.338745 2493.110840,652.203369 
	C2373.782715,652.028015 2255.374023,652.040710 2136.965576,652.081238 
	C2118.673828,652.087463 2100.382324,652.221619 2081.214600,652.135559 
	C2076.192383,652.091675 2072.045898,652.208862 2067.112793,652.257263 
	C2064.222412,652.238281 2062.118408,652.288086 2059.137207,652.170776 
	C2053.506104,652.124756 2048.752441,652.245972 2043.168335,652.295654 
	C2039.563354,652.280273 2036.788452,652.336304 2033.118408,652.218628 
	C2026.149780,652.174316 2020.076172,652.303772 2013.132324,652.357422 
	C2008.196167,652.388123 2004.130249,652.494751 1999.236084,652.430847 
	C1995.593872,652.313416 1992.779907,652.366394 1989.149414,652.260986 
	C1985.572632,652.217163 1982.812378,652.331848 1979.127563,652.351929 
	C1970.152710,652.373901 1962.102417,652.490479 1953.126221,652.438843 
	C1938.824097,652.383606 1925.447876,652.496643 1911.148682,652.440430 
	C1898.081421,652.625793 1885.936890,652.980408 1873.056763,652.988770 
	C1858.934326,652.605469 1845.547729,652.568359 1831.223511,652.362671 
	C1818.218506,652.272217 1806.151001,652.350342 1793.149292,652.309204 
	C1780.704468,652.227539 1769.193970,652.265076 1756.771240,652.208130 
	C1628.576904,652.089478 1501.294922,652.063293 1374.012817,652.059326 
	C1372.026123,652.059265 1370.039429,652.333313 1368.052734,652.479431 
	C1367.172607,652.448975 1366.292480,652.418518 1364.526611,652.279297 
	C1363.640991,652.170410 1363.106201,652.384460 1363.106201,652.384460 
	C1361.452759,652.092957 1359.799316,651.801453 1357.734375,650.768066 
z"/>
<path fill="#FE8FAD" opacity="1.000000" stroke="none" 
	d="
M2938.929688,650.309631 
	C2942.368164,652.245911 2942.641602,655.455994 2942.614502,658.940918 
	C2942.355469,692.249146 2942.031982,725.557617 2941.964111,758.866455 
	C2941.844727,817.182373 2941.892822,875.498596 2941.307129,934.962280 
	C2940.186279,936.503723 2939.619873,936.517212 2938.719727,935.256775 
	C2938.314209,930.376038 2938.163086,926.388733 2938.162598,922.401489 
	C2938.148682,842.923950 2938.160400,763.446350 2938.141846,683.968811 
	C2938.139648,673.995605 2937.997070,664.022461 2937.983398,653.572937 
	C2938.047119,653.096619 2937.951416,652.140259 2938.211426,651.690918 
	C2938.624268,650.930908 2938.777100,650.620239 2938.929688,650.309631 
z"/>
<path fill="#F6F5F6" opacity="1.000000" stroke="none" 
	d="
M2938.004150,649.850342 
	C2938.777100,650.620239 2938.624268,650.930908 2937.283936,651.597412 
	C2807.375732,651.941162 2678.654785,651.926208 2549.934082,651.936829 
	C2547.287354,651.937012 2544.640625,652.233154 2541.060547,652.310913 
	C2526.052490,652.171265 2511.978271,652.111877 2497.903809,652.052551 
	C2497.826904,651.724365 2497.750244,651.396240 2497.721680,650.564514 
	C2640.213379,649.785583 2782.656738,649.508789 2925.099854,649.242371 
	C2929.092773,649.234863 2933.085693,649.338928 2938.004150,649.850342 
z"/>
<path fill="#FDABC2" opacity="1.000000" stroke="none" 
	d="
M971.613831,1440.072754 
	C972.583069,1440.641235 973.035706,1441.100464 973.945862,1441.781250 
	C973.751953,1445.147461 972.533386,1448.291626 972.530884,1451.437012 
	C972.434387,1573.211548 972.430054,1694.986084 972.510498,1816.760742 
	C972.514160,1822.310547 973.414612,1827.859863 973.188599,1833.856567 
	C971.988586,1834.171387 971.497498,1834.039185 970.372314,1832.842285 
	C969.795776,1791.136475 969.878479,1750.495728 969.905701,1709.854858 
	C969.965942,1619.907349 969.998352,1529.959717 970.042114,1440.012207 
	C970.393799,1439.995850 970.745483,1439.979614 971.613831,1440.072754 
z"/>
<path fill="#F6F5F6" opacity="1.000000" stroke="none" 
	d="
M1366.260010,1835.056030 
	C1368.396606,1834.188721 1371.050537,1833.852905 1373.704590,1833.852417 
	C1499.673706,1833.826050 1625.642700,1833.828003 1751.611816,1833.836548 
	C1753.276001,1833.836670 1754.940186,1833.960815 1757.562256,1834.244019 
	C1756.406860,1835.016479 1754.293823,1836.057129 1752.180298,1836.058228 
	C1624.700684,1836.129395 1497.221069,1836.115967 1369.741455,1836.093750 
	C1368.753418,1836.093628 1367.765381,1835.865601 1366.260010,1835.056030 
z"/>
<path fill="#FE2360" opacity="1.000000" stroke="none" 
	d="
M1364.128296,656.693604 
	C1364.899170,658.939270 1365.947144,662.128540 1365.949219,665.318542 
	C1366.032227,788.721130 1366.030640,912.123840 1365.958618,1035.526489 
	C1365.956787,1038.733643 1365.050049,1041.940186 1363.781738,1045.540161 
	C1363.262695,1041.630371 1363.757324,1037.327759 1363.758789,1033.024780 
	C1363.800537,912.221191 1363.791016,791.417542 1363.797607,670.613953 
	C1363.797852,666.288513 1363.875732,661.963074 1364.128296,656.693604 
z"/>
<path fill="#F6F5F6" opacity="1.000000" stroke="none" 
	d="
M2939.044434,936.150269 
	C2939.619873,936.517212 2940.186279,936.503723 2941.115723,935.856506 
	C2941.778809,938.898987 2942.308350,942.193726 2942.321777,945.490662 
	C2942.404785,966.153503 2942.253906,986.817932 2942.439697,1007.479492 
	C2942.510986,1015.394043 2943.589600,1023.302490 2943.587891,1031.213623 
	C2943.586914,1035.988159 2942.391602,1040.762451 2941.008301,1045.903076 
	C2940.283691,1046.269409 2940.126221,1046.118652 2939.710449,1045.159058 
	C2939.211182,1008.183044 2939.127930,972.166687 2939.044434,936.150269 
z"/>
<path fill="#FDABC2" opacity="1.000000" stroke="none" 
	d="
M2151.863525,1180.172974 
	C2151.213379,1176.150391 2150.368896,1172.146973 2149.972168,1168.099609 
	C2149.626709,1164.572876 2149.785889,1160.996826 2149.847168,1156.494385 
	C2149.837646,1154.876343 2149.703369,1154.206421 2149.626465,1152.097900 
	C2149.788818,1145.540771 2149.894043,1140.422241 2149.999268,1135.303589 
	C2149.852539,1134.015381 2149.705811,1132.727051 2150.281738,1130.774536 
	C2151.004395,1130.110229 2151.967773,1129.942993 2152.000488,1130.862061 
	C2152.122070,1137.911133 2152.210938,1144.040894 2152.239014,1151.083984 
	C2152.073242,1161.389038 2151.968506,1170.781006 2151.863525,1180.172974 
z"/>
<path fill="#F6F5F6" opacity="1.000000" stroke="none" 
	d="
M2151.967773,1129.942993 
	C2151.967773,1129.942993 2151.004395,1130.110229 2150.517578,1130.161133 
	C2149.928467,1127.179443 2149.825928,1124.146973 2150.368652,1120.506714 
	C2151.013916,1119.898926 2151.987061,1120.024658 2151.947754,1120.850830 
	C2151.927979,1124.432251 2151.947998,1127.187622 2151.967773,1129.942993 
z"/>
<path fill="#F6F5F6" opacity="1.000000" stroke="none" 
	d="
M2149.613770,1136.040527 
	C2149.894043,1140.422241 2149.788818,1145.540771 2149.820801,1151.610840 
	C2149.714844,1147.300659 2149.471436,1142.039062 2149.613770,1136.040527 
z"/>
<path fill="#FDABC2" opacity="1.000000" stroke="none" 
	d="
M2151.987305,1120.024658 
	C2151.987061,1120.024658 2151.013916,1119.898926 2150.523926,1119.879395 
	C2149.873535,1119.109375 2149.713379,1118.359009 2149.734863,1117.050781 
	C2150.259277,1114.652466 2150.602539,1112.812012 2151.496582,1111.318604 
	C2152.027100,1114.452148 2152.007080,1117.238403 2151.987305,1120.024658 
z"/>
<path fill="#FDABC2" opacity="1.000000" stroke="none" 
	d="
M2149.028809,1070.260010 
	C2149.681885,1070.936646 2149.871338,1071.844604 2149.920410,1073.438232 
	C2149.375244,1072.912964 2148.970459,1071.702026 2149.028809,1070.260010 
z"/>
<path fill="#FDABC2" opacity="1.000000" stroke="none" 
	d="
M2149.534912,1832.863892 
	C2149.754883,1832.075317 2150.079102,1831.947144 2151.237793,1832.185303 
	C2152.072266,1832.551514 2152.099121,1833.473999 2152.099121,1833.473999 
	C2152.124268,1833.854126 2152.149170,1834.234253 2152.200684,1835.185425 
	C2151.364746,1835.012573 2150.501953,1834.268433 2149.534912,1832.863892 
z"/>
<path fill="#FDABC2" opacity="1.000000" stroke="none" 
	d="
M2149.161865,1082.042236 
	C2149.824707,1082.459717 2149.770752,1082.869141 2149.012207,1083.265137 
	C2148.295410,1082.846802 2148.341553,1082.440796 2149.161865,1082.042236 
z"/>
<path fill="#FE2360" opacity="1.000000" stroke="none" 
	d="
M1363.151611,652.689697 
	C1363.106201,652.384460 1363.640991,652.170410 1363.866333,652.351501 
	C1364.091675,652.532593 1364.132568,653.161804 1364.117920,653.477173 
	C1363.656250,653.690735 1363.354248,653.424866 1363.151611,652.689697 
z"/>
<path fill="#FE6D95" opacity="1.000000" stroke="none" 
	d="
M1364.426270,1568.114258 
	C1364.262207,1533.706543 1364.096680,1499.298950 1363.935181,1464.891235 
	C1363.899414,1457.280762 1363.877808,1449.670288 1363.820068,1441.137329 
	C1364.145996,1440.158813 1364.501709,1440.102905 1365.411133,1441.024902 
	C1366.006470,1456.652710 1366.047852,1471.302490 1366.057617,1486.893799 
	C1366.026367,1501.477295 1365.918579,1515.120361 1366.067261,1528.760376 
	C1366.159424,1537.208252 1367.236694,1537.832764 1375.290405,1536.643921 
	C1379.206421,1536.065796 1383.226318,1536.025757 1387.199463,1536.024292 
	C1510.641113,1535.977905 1634.082642,1535.966431 1757.524292,1535.949585 
	C1757.616577,1555.325073 1757.708862,1574.700562 1756.775146,1595.021362 
	C1629.375977,1595.979370 1503.002930,1595.996582 1376.629761,1595.978271 
	C1373.431030,1595.977905 1370.232300,1595.587646 1366.015625,1595.312988 
	C1366.015625,1589.522339 1366.217407,1584.590088 1365.951416,1579.683228 
	C1365.741333,1575.810791 1364.956055,1571.969360 1364.426270,1568.114258 
z"/>
<path fill="#FE4F7F" opacity="1.000000" stroke="none" 
	d="
M1366.089233,1485.952148 
	C1366.047852,1471.302490 1366.006470,1456.652710 1365.948242,1441.081299 
	C1370.250366,1440.074219 1374.569336,1439.914673 1378.888184,1439.914185 
	C1500.576172,1439.902100 1622.264038,1439.906860 1743.952026,1439.902954 
	C1747.276245,1439.902832 1750.600342,1439.837646 1755.312744,1439.805664 
	C1756.700806,1439.808594 1757.652832,1439.907349 1757.652832,1439.907349 
	C1757.701538,1454.637207 1757.750366,1469.367065 1756.749512,1485.031006 
	C1625.829712,1485.960693 1495.959473,1485.956421 1366.089233,1485.952148 
z"/>
<path fill="#FDABC2" opacity="1.000000" stroke="none" 
	d="
M1757.683350,652.302612 
	C1769.193970,652.265076 1780.704468,652.227539 1793.119629,653.205078 
	C1794.035522,784.723328 1794.046997,915.226379 1794.058472,1045.729492 
	C1782.767334,1045.849854 1771.476196,1045.970337 1759.274658,1046.146973 
	C1758.228638,1042.219604 1757.974854,1038.236084 1757.974243,1034.252563 
	C1757.953491,912.144531 1757.958618,790.036438 1757.952759,667.928406 
	C1757.952515,663.936523 1757.881348,659.944702 1757.786377,654.590759 
	C1757.729370,653.228699 1757.683350,652.302612 1757.683350,652.302612 
z"/>
<path fill="#FE2360" opacity="1.000000" stroke="none" 
	d="
M1756.771240,652.208130 
	C1757.683350,652.302612 1757.729370,653.228699 1757.610107,653.676880 
	C1678.324707,654.082642 1599.158569,654.030884 1519.992554,654.001587 
	C1473.091309,653.984192 1426.190063,654.013550 1379.288818,653.980347 
	C1375.984863,653.978027 1372.681152,653.631287 1368.715088,652.962036 
	C1370.039429,652.333313 1372.026123,652.059265 1374.012817,652.059326 
	C1501.294922,652.063293 1628.576904,652.089478 1756.771240,652.208130 
z"/>
<path fill="#FE2360" opacity="1.000000" stroke="none" 
	d="
M1757.295166,1046.578613 
	C1757.953369,1047.274170 1758.157227,1048.597290 1758.156982,1049.920410 
	C1758.143555,1155.999390 1758.114624,1262.078369 1757.876221,1369.072998 
	C1757.113525,1367.140747 1756.080078,1364.293213 1756.077759,1361.444824 
	C1755.994507,1258.991455 1756.002808,1156.537964 1756.038086,1054.084595 
	C1756.038940,1051.791626 1756.499512,1049.498901 1757.295166,1046.578613 
z"/>
<path fill="#FE2360" opacity="1.000000" stroke="none" 
	d="
M1757.855957,1438.995361 
	C1757.652832,1439.907349 1756.700806,1439.808594 1756.229858,1439.712036 
	C1755.841919,1422.788330 1755.894287,1405.960815 1756.034424,1389.134155 
	C1756.061646,1385.860229 1756.430786,1382.589111 1757.154053,1378.670654 
	C1757.796997,1398.044067 1757.927979,1418.063599 1757.855957,1438.995361 
z"/>
<path fill="#FF0046" opacity="1.000000" stroke="none" 
	d="
M969.101929,1440.002686 
	C969.998352,1529.959717 969.965942,1619.907349 969.905701,1709.854858 
	C969.878479,1750.495728 969.795776,1791.136475 969.626709,1832.680908 
	C841.195312,1833.631592 712.875427,1833.681152 584.555603,1833.706543 
	C582.285400,1833.707031 580.015137,1833.418701 576.457458,1833.177856 
	C576.457458,1702.629150 576.457458,1572.440308 577.365479,1441.188965 
	C586.832275,1439.865479 595.390991,1439.604736 604.870667,1439.532227 
	C617.170837,1439.594727 628.550110,1439.469116 640.852295,1439.532715 
	C654.431824,1439.586548 667.088440,1439.451172 680.636841,1439.502197 
	C686.324890,1439.605835 691.121277,1439.523193 696.844116,1439.609863 
	C709.157776,1439.694946 720.544922,1439.610352 732.862671,1439.672119 
	C747.836060,1439.745972 761.878845,1439.673462 775.921631,1439.600830 
	C789.302734,1439.690674 802.683777,1439.780518 817.936523,1439.908691 
	C841.850037,1439.921265 863.891907,1439.895630 885.933838,1439.869873 
	C913.343140,1439.911011 940.752441,1439.952148 969.101929,1440.002686 
z"/>
<path fill="#FF3E73" opacity="1.000000" stroke="none" 
	d="
M885.982422,1439.037598 
	C863.891907,1439.895630 841.850037,1439.921265 818.867065,1439.849609 
	C817.951477,1312.661011 817.976990,1185.569824 818.002319,1058.478638 
	C818.003174,1054.213623 818.002441,1049.948730 818.002441,1044.477173 
	C841.386108,1042.573120 863.743652,1047.763184 887.067383,1045.993774 
	C888.003235,1170.835449 888.028442,1295.665894 887.916443,1420.496338 
	C887.911133,1426.399902 886.687378,1432.302490 885.982422,1439.037598 
z"/>
<path fill="#FF5F8A" opacity="1.000000" stroke="none" 
	d="
M775.944885,1438.699951 
	C761.878845,1439.673462 747.836060,1439.745972 732.911743,1438.870117 
	C732.686768,1432.354370 733.911011,1426.787476 733.916382,1421.219482 
	C734.027283,1305.394653 734.046326,1189.569824 733.911743,1073.744995 
	C733.901001,1064.513794 732.638977,1055.284058 731.958496,1046.053711 
	C746.187988,1046.053711 760.417480,1046.053711 775.968140,1046.053711 
	C775.968140,1177.475464 775.968140,1307.637207 775.944885,1438.699951 
z"/>
<path fill="#FE6D95" opacity="1.000000" stroke="none" 
	d="
M731.027344,1046.044434 
	C732.638977,1055.284058 733.901001,1064.513794 733.911743,1073.744995 
	C734.046326,1189.569824 734.027283,1305.394653 733.916382,1421.219482 
	C733.911011,1426.787476 732.686768,1432.354370 731.981140,1438.723755 
	C720.544922,1439.610352 709.157776,1439.694946 696.865601,1438.720581 
	C695.973816,1330.386230 695.873901,1223.110352 696.089172,1115.835205 
	C696.135803,1092.599609 694.335388,1069.283813 697.928650,1046.130615 
	C708.651184,1046.098755 719.373718,1046.067017 731.027344,1046.044434 
z"/>
<path fill="#FE8BAA" opacity="1.000000" stroke="none" 
	d="
M679.745056,1439.315796 
	C667.088440,1439.451172 654.431824,1439.586548 640.865723,1438.645874 
	C639.945557,1307.131226 639.934937,1176.692627 639.924255,1046.254028 
	C651.308655,1046.212524 662.693115,1046.171143 675.025757,1047.095093 
	C675.978638,1171.354736 675.920837,1294.649292 676.148254,1417.943237 
	C676.161438,1425.069580 678.492615,1432.191650 679.745056,1439.315796 
z"/>
<path fill="#FE9BB7" opacity="1.000000" stroke="none" 
	d="
M638.996582,1046.185791 
	C639.934937,1176.692627 639.945557,1307.131226 639.942810,1438.456665 
	C628.550110,1439.469116 617.170837,1439.594727 604.880066,1438.642700 
	C603.979736,1311.693970 604.012451,1185.822632 603.915894,1059.951538 
	C603.912415,1055.386719 602.638794,1050.822998 601.957092,1046.258789 
	C613.994324,1046.211670 626.031616,1046.164551 638.996582,1046.185791 
z"/>
<path fill="#FDABC2" opacity="1.000000" stroke="none" 
	d="
M601.044922,1046.179810 
	C602.638794,1050.822998 603.912415,1055.386719 603.915894,1059.951538 
	C604.012451,1185.822632 603.979736,1311.693970 603.959167,1438.454590 
	C595.390991,1439.604736 586.832275,1439.865479 577.394165,1440.279785 
	C576.413513,1438.106934 576.223999,1435.780640 576.223755,1433.454346 
	C576.210022,1306.198486 576.211853,1178.942627 576.217163,1051.686768 
	C576.217224,1050.354858 576.285034,1049.023071 576.831482,1046.753418 
	C577.341797,1045.815796 578.210083,1045.715698 578.210083,1045.715698 
	C585.517639,1045.844116 592.825134,1045.972534 601.044922,1046.179810 
z"/>
<path fill="#FE7FA2" opacity="1.000000" stroke="none" 
	d="
M680.636841,1439.502197 
	C678.492615,1432.191650 676.161438,1425.069580 676.148254,1417.943237 
	C675.920837,1294.649292 675.978638,1171.354736 675.956360,1047.148193 
	C682.662903,1046.181519 689.387085,1046.126831 697.019958,1046.101318 
	C694.335388,1069.283813 696.135803,1092.599609 696.089172,1115.835205 
	C695.873901,1223.110352 695.973816,1330.386230 695.939148,1438.551025 
	C691.121277,1439.523193 686.324890,1439.605835 680.636841,1439.502197 
z"/>
<path fill="#FE7FA2" opacity="1.000000" stroke="none" 
	d="
M578.135620,1044.810547 
	C578.210083,1045.715698 577.341797,1045.815796 576.906433,1045.807007 
	C576.351013,1031.493164 576.132263,1017.188110 576.130859,1002.883057 
	C576.127747,969.927063 576.230286,936.971069 576.363892,903.093811 
	C576.437805,902.172546 577.190369,902.061035 577.568359,902.023804 
	C577.980164,920.716553 578.014038,939.446472 578.096130,959.119629 
	C578.108521,978.096130 578.072693,996.129517 578.094482,1015.103516 
	C578.121765,1025.331177 578.091431,1034.618408 578.135620,1044.810547 
z"/>
<path fill="#FFA3BD" opacity="1.000000" stroke="none" 
	d="
M1757.667480,1751.964111 
	C1757.728760,1766.678101 1757.789917,1781.391968 1757.743164,1797.035156 
	C1627.743652,1797.964478 1497.852173,1797.964478 1367.810059,1797.964478 
	C1364.578979,1790.380859 1366.371948,1783.015747 1366.072266,1775.869385 
	C1365.765381,1768.553101 1365.998047,1761.214233 1365.999268,1752.940674 
	C1366.003784,1751.996216 1366.019531,1751.980469 1366.954590,1751.989014 
	C1497.815552,1751.986328 1627.741577,1751.975220 1757.667480,1751.964111 
z"/>
<path fill="#FFA3BD" opacity="1.000000" stroke="none" 
	d="
M1364.709717,1751.981689 
	C1364.175049,1715.934937 1364.066162,1679.898682 1364.466675,1642.938721 
	C1364.976074,1642.014771 1365.847656,1642.037720 1365.879883,1642.892334 
	C1365.939697,1647.169556 1365.967407,1650.592041 1365.981934,1654.950317 
	C1365.985596,1672.588989 1366.002563,1689.292114 1366.010010,1706.932861 
	C1366.006836,1722.573853 1366.013184,1737.277222 1366.019531,1751.980469 
	C1366.019531,1751.980469 1366.003784,1751.996216 1365.995605,1752.004150 
	C1365.987549,1752.012207 1365.135742,1751.992310 1364.709717,1751.981689 
z"/>
<path fill="#FF2964" opacity="1.000000" stroke="none" 
	d="
M2074.041260,1045.629517 
	C2073.151611,1045.700439 2072.261719,1045.771240 2070.667480,1044.911743 
	C2069.308838,1039.412964 2068.086182,1034.844727 2068.083008,1030.275879 
	C2067.991211,904.819580 2068.023438,779.363281 2068.902344,653.913330 
	C2073.806641,653.908508 2077.843506,653.897339 2082.824219,653.934448 
	C2109.860840,654.018005 2135.953857,654.053162 2162.030029,655.016663 
	C2162.026611,785.843201 2162.039551,915.741394 2161.207520,1045.778809 
	C2157.514160,1046.068237 2154.666016,1046.218262 2151.818115,1046.368408 
	C2131.150635,1046.204834 2110.483154,1046.041260 2088.316406,1045.294922 
	C2082.558594,1045.017944 2078.299805,1045.323730 2074.041260,1045.629517 
z"/>
<path fill="#FF3E73" opacity="1.000000" stroke="none" 
	d="
M2068.035156,653.906982 
	C2068.023438,779.363281 2067.991211,904.819580 2068.083008,1030.275879 
	C2068.086182,1034.844727 2069.308838,1039.412964 2070.004883,1044.801392 
	C2046.664795,1045.692627 2023.282715,1045.764038 1998.960693,1044.809814 
	C1998.015381,921.285583 1997.972046,798.786987 1998.093018,676.288513 
	C1998.100830,668.392151 1999.377686,660.497009 2000.064209,652.601318 
	C2004.130249,652.494751 2008.196167,652.388123 2013.769775,652.816162 
	C2021.522827,653.031311 2027.768311,652.711914 2034.013672,652.392456 
	C2036.788452,652.336304 2039.563354,652.280273 2043.776978,652.742920 
	C2050.148682,652.953674 2055.081787,652.645813 2060.014648,652.337952 
	C2062.118408,652.288086 2064.222412,652.238281 2067.161621,652.651062 
	C2067.997314,653.113647 2068.035156,653.906982 2068.035156,653.906982 
z"/>
<path fill="#FDABC2" opacity="1.000000" stroke="none" 
	d="
M2151.856201,1047.279785 
	C2154.666016,1046.218262 2157.514160,1046.068237 2162.135742,1045.884033 
	C2200.616455,1045.781006 2237.322998,1045.712158 2274.958984,1045.757935 
	C2307.928711,1045.795776 2339.968994,1045.719116 2372.938965,1045.766479 
	C2403.250244,1045.804932 2432.632080,1045.719238 2462.942383,1045.760254 
	C2491.279297,1045.989502 2518.687988,1046.092285 2546.096436,1046.195068 
	C2545.928955,1065.552979 2545.761719,1084.911133 2544.550293,1105.156860 
	C2413.010498,1106.031250 2282.514893,1106.018066 2152.019287,1106.004883 
	C2151.977783,1086.733643 2151.936035,1067.462524 2151.856201,1047.279785 
z"/>
<path fill="#FE7FA2" opacity="1.000000" stroke="none" 
	d="
M1365.995117,1654.014648 
	C1365.967407,1650.592041 1365.939697,1647.169556 1365.929443,1641.952026 
	C1365.948486,1629.927246 1366.083618,1619.694580 1365.871704,1609.469238 
	C1365.806396,1606.312134 1364.795654,1603.174438 1364.217773,1600.027954 
	C1364.179077,1589.996216 1364.140503,1579.964600 1364.264160,1569.023560 
	C1364.956055,1571.969360 1365.741333,1575.810791 1365.951416,1579.683228 
	C1366.217407,1584.590088 1366.015625,1589.522339 1366.015625,1595.312988 
	C1370.232300,1595.587646 1373.431030,1595.977905 1376.629761,1595.978271 
	C1503.002930,1595.996582 1629.375977,1595.979370 1756.647949,1595.945557 
	C1757.638306,1614.647583 1757.729614,1633.370850 1756.799683,1653.036133 
	C1625.850708,1653.990479 1495.922852,1654.002563 1365.995117,1654.014648 
z"/>
<path fill="#FE8BAA" opacity="1.000000" stroke="none" 
	d="
M1365.981934,1654.950317 
	C1495.922852,1654.002563 1625.850708,1653.990479 1756.677979,1653.962402 
	C1757.656616,1670.653320 1757.735840,1687.360229 1756.906494,1705.046875 
	C1750.429199,1706.686157 1744.860962,1707.914307 1739.291260,1707.920532 
	C1635.754883,1708.035400 1532.218384,1708.095947 1428.682129,1707.928589 
	C1407.790283,1707.894775 1386.814209,1709.558838 1366.019531,1705.995117 
	C1366.002563,1689.292114 1365.985596,1672.588989 1365.981934,1654.950317 
z"/>
<path fill="#FF5F8A" opacity="1.000000" stroke="none" 
	d="
M1366.057617,1486.893799 
	C1495.959473,1485.956421 1625.829712,1485.960693 1756.599243,1485.953125 
	C1757.604126,1501.994629 1757.709717,1518.048096 1757.669800,1535.025635 
	C1634.082642,1535.966431 1510.641113,1535.977905 1387.199463,1536.024292 
	C1383.226318,1536.025757 1379.206421,1536.065796 1375.290405,1536.643921 
	C1367.236694,1537.832764 1366.159424,1537.208252 1366.067261,1528.760376 
	C1365.918579,1515.120361 1366.026367,1501.477295 1366.057617,1486.893799 
z"/>
<path fill="#FE9BB7" opacity="1.000000" stroke="none" 
	d="
M2151.973877,1106.669189 
	C2282.514893,1106.018066 2413.010498,1106.031250 2544.365723,1106.083618 
	C2545.314453,1120.179932 2545.403320,1134.237183 2544.422119,1149.174927 
	C2426.301025,1150.038574 2309.250244,1150.016235 2192.199219,1150.012451 
	C2178.899414,1150.011963 2165.599609,1150.115479 2152.299805,1150.170776 
	C2152.210938,1144.040894 2152.122070,1137.911133 2152.000488,1130.862061 
	C2151.947998,1127.187622 2151.927979,1124.432251 2151.947754,1120.850830 
	C2152.007080,1117.238403 2152.027100,1114.452148 2152.023438,1110.830566 
	C2151.976318,1109.107910 2151.952393,1108.220825 2151.973877,1106.669189 
z"/>
<path fill="#FF5F8A" opacity="1.000000" stroke="none" 
	d="
M1912.071533,652.609741 
	C1925.447876,652.496643 1938.824097,652.383606 1953.122070,653.252380 
	C1954.695679,663.477783 1955.904541,672.720764 1955.915283,681.965149 
	C1956.045776,794.270752 1956.044434,906.576599 1955.915405,1018.882202 
	C1955.905151,1027.791992 1954.693115,1036.700562 1954.039673,1045.609619 
	C1940.661011,1045.682007 1927.282349,1045.754395 1912.961670,1044.808594 
	C1912.036987,913.396851 1912.054199,783.003235 1912.071533,652.609741 
z"/>
<path fill="#FE9BB7" opacity="1.000000" stroke="none" 
	d="
M1366.010010,1706.932861 
	C1386.814209,1709.558838 1407.790283,1707.894775 1428.682129,1707.928589 
	C1532.218384,1708.095947 1635.754883,1708.035400 1739.291260,1707.920532 
	C1744.860962,1707.914307 1750.429199,1706.686157 1756.806885,1705.973877 
	C1757.702637,1720.648926 1757.789429,1735.376953 1757.771851,1751.034424 
	C1627.741577,1751.975220 1497.815552,1751.986328 1366.954590,1751.989014 
	C1366.013184,1737.277222 1366.006836,1722.573853 1366.010010,1706.932861 
z"/>
<path fill="#FE4F7F" opacity="1.000000" stroke="none" 
	d="
M1954.968140,1045.722778 
	C1954.693115,1036.700562 1955.905151,1027.791992 1955.915405,1018.882202 
	C1956.044434,906.576599 1956.045776,794.270752 1955.915283,681.965149 
	C1955.904541,672.720764 1954.695679,663.477783 1954.047852,653.420654 
	C1962.102417,652.490479 1970.152710,652.373901 1979.640625,652.780884 
	C1984.040894,653.009338 1987.003296,652.714355 1989.965820,652.419373 
	C1992.779907,652.366394 1995.593872,652.313416 1999.236084,652.430847 
	C1999.377686,660.497009 1998.100830,668.392151 1998.093018,676.288513 
	C1997.972046,798.786987 1998.015381,921.285583 1998.032837,1044.694214 
	C1983.995483,1045.681519 1969.946045,1045.758667 1954.968140,1045.722778 
z"/>
<path fill="#FE7FA2" opacity="1.000000" stroke="none" 
	d="
M1832.161011,652.531250 
	C1845.547729,652.568359 1858.934326,652.605469 1873.126343,653.992310 
	C1873.956055,659.999695 1874.000977,664.657410 1874.001831,669.315063 
	C1874.023682,794.746643 1874.040894,920.178162 1874.058838,1045.609619 
	C1861.355957,1045.680420 1848.653198,1045.751221 1834.854736,1044.955322 
	C1833.169556,1039.515625 1832.068848,1034.942871 1832.064941,1030.369019 
	C1831.969727,916.750061 1831.984985,803.131042 1831.997681,689.511963 
	C1831.999023,677.185059 1832.104126,664.858154 1832.161011,652.531250 
z"/>
<path fill="#FE9BB7" opacity="1.000000" stroke="none" 
	d="
M1831.223511,652.362671 
	C1832.104126,664.858154 1831.999023,677.185059 1831.997681,689.511963 
	C1831.984985,803.131042 1831.969727,916.750061 1832.064941,1030.369019 
	C1832.068848,1034.942871 1833.169556,1039.515625 1833.926514,1044.884033 
	C1821.368164,1045.747192 1808.642334,1045.815186 1794.987549,1045.806396 
	C1794.046997,915.226379 1794.035522,784.723328 1794.053711,653.324341 
	C1806.151001,652.350342 1818.218506,652.272217 1831.223511,652.362671 
z"/>
<path fill="#FE6D95" opacity="1.000000" stroke="none" 
	d="
M1874.986084,1045.715088 
	C1874.040894,920.178162 1874.023682,794.746643 1874.001831,669.315063 
	C1874.000977,664.657410 1873.956055,659.999695 1873.862061,654.338501 
	C1885.936890,652.980408 1898.081421,652.625793 1911.148682,652.440430 
	C1912.054199,783.003235 1912.036987,913.396851 1912.033813,1044.698608 
	C1900.002930,1045.678101 1887.958130,1045.749390 1874.986084,1045.715088 
z"/>
<path fill="#FF3E73" opacity="1.000000" stroke="none" 
	d="
M2074.899902,1045.783569 
	C2078.299805,1045.323730 2082.558594,1045.017944 2087.381836,1045.181641 
	C2083.884033,1045.746582 2079.821533,1045.842163 2074.899902,1045.783569 
z"/>
<path fill="#FF0046" opacity="1.000000" stroke="none" 
	d="
M2546.156006,1046.043335 
	C2518.687988,1046.092285 2491.279297,1045.989502 2462.937500,1044.848389 
	C2461.989502,914.421753 2461.974365,785.033264 2462.856201,655.641724 
	C2473.845703,654.559326 2483.938232,653.479919 2494.030762,652.400513 
	C2494.366943,652.338745 2494.703369,652.276978 2495.546631,652.135986 
	C2496.053467,652.056702 2496.980225,652.366760 2497.441895,652.209656 
	C2511.978271,652.111877 2526.052490,652.171265 2541.735107,652.777832 
	C2546.984863,653.512085 2550.626465,653.861450 2554.268066,653.862305 
	C2662.837402,653.887756 2771.406494,653.870239 2879.975830,653.883057 
	C2899.290283,653.885376 2918.604980,653.991150 2937.919434,654.049194 
	C2937.997070,664.022461 2938.139648,673.995605 2938.141846,683.968811 
	C2938.160400,763.446350 2938.148682,842.923950 2938.162598,922.401489 
	C2938.163086,926.388733 2938.314209,930.376038 2938.719727,935.256775 
	C2939.127930,972.166687 2939.211182,1008.183044 2939.633301,1045.081909 
	C2939.654785,1045.735596 2939.337402,1045.506836 2937.741211,1044.869141 
	C2935.148193,1044.307739 2933.834473,1044.021851 2932.520508,1044.021606 
	C2806.504883,1044.000366 2680.489502,1043.989502 2554.473877,1044.071533 
	C2551.629639,1044.073364 2548.785645,1045.143433 2545.941650,1045.715210 
	C2545.941650,1045.715210 2546.215576,1045.891602 2546.156006,1046.043335 
z"/>
<path fill="#FE074B" opacity="1.000000" stroke="none" 
	d="
M2153.023926,1833.583618 
	C2152.099121,1833.473999 2152.072266,1832.551514 2151.760254,1832.211548 
	C2151.453857,1819.879517 2151.459473,1807.887329 2151.638184,1794.060791 
	C2151.980225,1774.159668 2152.148926,1756.092773 2152.819580,1737.367432 
	C2153.741211,1726.858887 2154.161133,1717.008667 2154.630127,1706.000000 
	C2159.710205,1706.000000 2163.949219,1706.000000 2168.188232,1706.000000 
	C2287.156250,1706.000000 2406.124023,1705.966675 2525.092041,1706.089478 
	C2531.658447,1706.096436 2538.223633,1707.399658 2544.789307,1708.099487 
	C2544.985352,1711.742676 2545.343994,1715.385620 2545.351562,1719.029175 
	C2545.422607,1753.336426 2545.433838,1787.643555 2545.461670,1821.950806 
	C2545.464600,1825.524170 2545.462158,1829.097534 2545.462158,1833.693237 
	C2414.212646,1833.693237 2284.080566,1833.693237 2153.023926,1833.583618 
z"/>
<path fill="#FF5F8A" opacity="1.000000" stroke="none" 
	d="
M2151.953369,1404.000610 
	C2151.909180,1373.281250 2151.864746,1342.561768 2152.477539,1310.389404 
	C2153.722168,1306.387939 2154.310059,1303.839600 2155.196533,1299.996338 
	C2160.368652,1299.359375 2165.847168,1298.102417 2171.327393,1298.096069 
	C2272.924316,1297.978394 2374.521484,1297.890503 2476.117920,1298.100708 
	C2499.016357,1298.148071 2522.008789,1296.247314 2544.805908,1300.140991 
	C2545.039551,1309.370239 2545.440430,1318.598755 2545.472656,1327.828735 
	C2545.548096,1349.300415 2545.445557,1370.772827 2544.318359,1393.135986 
	C2442.674561,1394.013306 2342.127197,1393.998535 2241.580078,1393.985718 
	C2217.275635,1393.982666 2192.970703,1394.076782 2168.666992,1393.933350 
	C2160.864746,1393.887329 2154.336182,1395.341431 2151.953369,1404.000610 
z"/>
<path fill="#FF1657" opacity="1.000000" stroke="none" 
	d="
M2545.060303,1707.190674 
	C2538.223633,1707.399658 2531.658447,1706.096436 2525.092041,1706.089478 
	C2406.124023,1705.966675 2287.156250,1706.000000 2168.188232,1706.000000 
	C2163.949219,1706.000000 2159.710205,1706.000000 2154.630127,1706.000000 
	C2154.161133,1717.008667 2153.741211,1726.858887 2152.669922,1736.438721 
	C2152.122803,1706.788574 2152.227051,1677.408447 2152.818115,1647.404297 
	C2153.822510,1642.906982 2154.340088,1639.033813 2154.946777,1634.493408 
	C2158.547363,1634.317749 2161.802979,1634.028442 2165.059326,1634.021484 
	C2185.059326,1633.978882 2205.061035,1634.181152 2225.058838,1633.969727 
	C2331.634033,1632.842896 2438.237305,1636.431763 2544.793213,1632.095459 
	C2544.972656,1656.824341 2545.151855,1681.553101 2545.060303,1707.190674 
z"/>
<path fill="#FE3069" opacity="1.000000" stroke="none" 
	d="
M2152.004150,1579.991943 
	C2151.901855,1558.607544 2151.799316,1537.223145 2152.406250,1514.388062 
	C2155.246582,1502.048828 2155.246582,1502.020386 2166.503174,1502.006470 
	C2185.467285,1501.983154 2204.431641,1501.994873 2223.395752,1502.000977 
	C2330.526611,1502.035767 2437.657227,1502.073120 2544.788086,1502.109619 
	C2544.966553,1523.482422 2545.145020,1544.855347 2544.205566,1567.125488 
	C2414.175293,1568.174194 2285.262939,1568.325195 2156.350342,1568.500977 
	C2156.080566,1568.501343 2155.802002,1568.855103 2155.544678,1569.065308 
	C2155.294434,1569.269897 2155.066162,1569.501831 2155.382568,1569.209351 
	C2154.121338,1573.234741 2153.062744,1576.613281 2152.004150,1579.991943 
z"/>
<path fill="#FE2360" opacity="1.000000" stroke="none" 
	d="
M2151.834229,1580.851318 
	C2153.062744,1576.613281 2154.121338,1573.234741 2155.382568,1569.209351 
	C2155.066162,1569.501831 2155.294434,1569.269897 2155.544678,1569.065308 
	C2155.802002,1568.855103 2156.080566,1568.501343 2156.350342,1568.500977 
	C2285.262939,1568.325195 2414.175293,1568.174194 2543.937988,1568.026367 
	C2544.967529,1588.778198 2545.146973,1609.526245 2545.059814,1631.184937 
	C2438.237305,1636.431763 2331.634033,1632.842896 2225.058838,1633.969727 
	C2205.061035,1634.181152 2185.059326,1633.978882 2165.059326,1634.021484 
	C2161.802979,1634.028442 2158.547363,1634.317749 2154.946777,1634.493408 
	C2154.340088,1639.033813 2153.822510,1642.906982 2152.677002,1646.474121 
	C2151.824951,1628.755249 2151.600586,1611.342651 2151.376221,1593.929932 
	C2151.472168,1589.856934 2151.568115,1585.783813 2151.834229,1580.851318 
z"/>
<path fill="#FF3E73" opacity="1.000000" stroke="none" 
	d="
M2545.057373,1501.198486 
	C2437.657227,1502.073120 2330.526611,1502.035767 2223.395752,1502.000977 
	C2204.431641,1501.994873 2185.467285,1501.983154 2166.503174,1502.006470 
	C2155.246582,1502.020386 2155.246582,1502.048828 2152.567627,1513.461182 
	C2151.909424,1496.608032 2151.799561,1479.231201 2152.406006,1460.348022 
	C2153.750244,1453.403564 2154.378418,1447.965332 2155.067627,1441.995117 
	C2160.020996,1441.995117 2163.993896,1441.994995 2167.966553,1441.994995 
	C2234.608887,1441.994995 2301.251221,1441.977539 2367.893555,1442.000488 
	C2426.871338,1442.020752 2485.848877,1442.086182 2544.826660,1442.131836 
	C2544.993408,1461.516968 2545.159912,1480.902100 2545.057373,1501.198486 
z"/>
<path fill="#FE7FA2" opacity="1.000000" stroke="none" 
	d="
M2152.042969,1257.987915 
	C2151.986084,1239.944458 2151.928955,1221.900879 2152.722900,1202.586060 
	C2157.496094,1200.876465 2161.417969,1200.062866 2165.340576,1200.056641 
	C2218.955078,1199.972534 2272.569336,1199.985107 2326.183838,1200.003784 
	C2399.112061,1200.029297 2472.040283,1200.080566 2544.968506,1200.120850 
	C2545.114258,1216.842163 2545.260010,1233.563721 2544.390625,1251.176758 
	C2534.818604,1252.712280 2526.262207,1253.907715 2517.704590,1253.916748 
	C2400.996826,1254.040405 2284.288818,1254.000000 2167.581055,1254.000122 
	C2165.253418,1254.000122 2162.784912,1253.508179 2160.632568,1254.122559 
	C2157.645020,1254.975342 2154.894775,1256.659668 2152.042969,1257.987915 
z"/>
<path fill="#FE8BAA" opacity="1.000000" stroke="none" 
	d="
M2545.218750,1199.200073 
	C2472.040283,1200.080566 2399.112061,1200.029297 2326.183838,1200.003784 
	C2272.569336,1199.985107 2218.955078,1199.972534 2165.340576,1200.056641 
	C2161.417969,1200.062866 2157.496094,1200.876465 2152.814453,1201.651611 
	C2151.974121,1195.315918 2151.893799,1188.643311 2151.838379,1181.071777 
	C2151.968506,1170.781006 2152.073242,1161.389038 2152.239014,1151.083984 
	C2165.599609,1150.115479 2178.899414,1150.011963 2192.199219,1150.012451 
	C2309.250244,1150.016235 2426.301025,1150.038574 2544.198730,1150.093506 
	C2545.186768,1166.180908 2545.327881,1182.230103 2545.218750,1199.200073 
z"/>
<path fill="#FE4F7F" opacity="1.000000" stroke="none" 
	d="
M2545.095215,1441.218506 
	C2485.848877,1442.086182 2426.871338,1442.020752 2367.893555,1442.000488 
	C2301.251221,1441.977539 2234.608887,1441.994995 2167.966553,1441.994995 
	C2163.993896,1441.994995 2160.020996,1441.995117 2155.067627,1441.995117 
	C2154.378418,1447.965332 2153.750244,1453.403564 2152.549805,1459.419434 
	C2151.883545,1441.951782 2151.789551,1423.906372 2151.824219,1404.930786 
	C2154.336182,1395.341431 2160.864746,1393.887329 2168.666992,1393.933350 
	C2192.970703,1394.076782 2217.275635,1393.982666 2241.580078,1393.985718 
	C2342.127197,1393.998535 2442.674561,1394.013306 2544.076660,1394.045654 
	C2545.075684,1409.477783 2545.219727,1424.891479 2545.095215,1441.218506 
z"/>
<path fill="#FE6D95" opacity="1.000000" stroke="none" 
	d="
M2151.943115,1258.922363 
	C2154.894775,1256.659668 2157.645020,1254.975342 2160.632568,1254.122559 
	C2162.784912,1253.508179 2165.253418,1254.000122 2167.581055,1254.000122 
	C2284.288818,1254.000000 2400.996826,1254.040405 2517.704590,1253.916748 
	C2526.262207,1253.907715 2534.818604,1252.712280 2544.138672,1252.086182 
	C2545.056152,1267.505859 2545.210693,1282.907715 2545.085693,1299.225342 
	C2522.008789,1296.247314 2499.016357,1298.148071 2476.117920,1298.100708 
	C2374.521484,1297.890503 2272.924316,1297.978394 2171.327393,1298.096069 
	C2165.847168,1298.102417 2160.368652,1299.359375 2155.196533,1299.996338 
	C2154.310059,1303.839600 2153.722168,1306.387939 2152.599365,1309.457031 
	C2151.990479,1293.270874 2151.916748,1276.563721 2151.943115,1258.922363 
z"/>
<path fill="#FF054A" opacity="1.000000" stroke="none" 
	d="
M2546.875977,1045.828979 
	C2548.785645,1045.143433 2551.629639,1044.073364 2554.473877,1044.071533 
	C2680.489502,1043.989502 2806.504883,1044.000366 2932.520508,1044.021606 
	C2933.834473,1044.021851 2935.148193,1044.307739 2937.154297,1044.878662 
	C2934.885742,1045.525024 2931.924561,1045.951660 2928.963623,1045.952148 
	C2801.912598,1045.972900 2674.861572,1045.955566 2546.875977,1045.828979 
z"/>
<path fill="#FDABC2" opacity="1.000000" stroke="none" 
	d="
M2150.847168,1594.576172 
	C2151.600586,1611.342651 2151.824951,1628.755249 2152.190186,1647.098145 
	C2152.227051,1677.408447 2152.122803,1706.788574 2152.167969,1737.097290 
	C2152.148926,1756.092773 2151.980225,1774.159668 2151.553223,1793.131104 
	C2150.738770,1791.532349 2149.699219,1789.029297 2149.696289,1786.525269 
	C2149.625977,1724.392090 2149.660400,1662.258667 2149.711426,1600.125366 
	C2149.712891,1598.490967 2150.106934,1596.856812 2150.847168,1594.576172 
z"/>
<path fill="#FE9BB7" opacity="1.000000" stroke="none" 
	d="
M1364.093750,1600.954346 
	C1364.795654,1603.174438 1365.806396,1606.312134 1365.871704,1609.469238 
	C1366.083618,1619.694580 1365.948486,1629.927246 1365.897339,1641.097412 
	C1365.847656,1642.037720 1364.976074,1642.014771 1364.541016,1642.003296 
	C1364.060425,1628.621460 1364.015137,1615.251099 1364.093750,1600.954346 
z"/>
<path fill="#FF3E73" opacity="1.000000" stroke="none" 
	d="
M2493.110840,652.203369 
	C2483.938232,653.479919 2473.845703,654.559326 2462.098145,655.327454 
	C2457.511963,654.639160 2454.581543,653.939941 2451.649902,653.935486 
	C2425.099854,653.895142 2398.550049,653.976318 2371.063477,653.982300 
	C2337.420410,653.979736 2304.713867,654.016724 2271.070312,654.015869 
	C2234.104248,654.014832 2198.075439,654.051575 2162.046631,654.088379 
	C2135.953857,654.053162 2109.860840,654.018005 2082.869629,653.536865 
	C2081.970947,653.091003 2082.090576,652.296631 2082.090576,652.296631 
	C2100.382324,652.221619 2118.673828,652.087463 2136.965576,652.081238 
	C2255.374023,652.040710 2373.782715,652.028015 2493.110840,652.203369 
z"/>
<path fill="#FE6D95" opacity="1.000000" stroke="none" 
	d="
M2033.118408,652.218628 
	C2027.768311,652.711914 2021.522827,653.031311 2014.640137,652.891968 
	C2020.076172,652.303772 2026.149780,652.174316 2033.118408,652.218628 
z"/>
<path fill="#FE6D95" opacity="1.000000" stroke="none" 
	d="
M2059.137207,652.170776 
	C2055.081787,652.645813 2050.148682,652.953674 2044.607178,652.814392 
	C2048.752441,652.245972 2053.506104,652.124756 2059.137207,652.170776 
z"/>
<path fill="#FE6D95" opacity="1.000000" stroke="none" 
	d="
M2081.214600,652.135559 
	C2082.090576,652.296631 2081.970947,653.091003 2081.925781,653.488586 
	C2077.843506,653.897339 2073.806641,653.908508 2068.902344,653.913330 
	C2068.035156,653.906982 2067.997314,653.113647 2067.948486,652.719849 
	C2072.045898,652.208862 2076.192383,652.091675 2081.214600,652.135559 
z"/>
<path fill="#FE6D95" opacity="1.000000" stroke="none" 
	d="
M1989.149414,652.260986 
	C1987.003296,652.714355 1984.040894,653.009338 1980.565186,652.875488 
	C1982.812378,652.331848 1985.572632,652.217163 1989.149414,652.260986 
z"/>
<path fill="#FF3E73" opacity="1.000000" stroke="none" 
	d="
M2937.983398,653.572876 
	C2918.604980,653.991150 2899.290283,653.885376 2879.975830,653.883057 
	C2771.406494,653.870239 2662.837402,653.887756 2554.268066,653.862305 
	C2550.626465,653.861450 2546.984863,653.512085 2542.668457,652.858154 
	C2544.640625,652.233154 2547.287354,651.937012 2549.934082,651.936829 
	C2678.654785,651.926208 2807.375732,651.941162 2937.023926,652.046753 
	C2937.951416,652.140259 2938.047119,653.096619 2937.983398,653.572876 
z"/>
<path fill="#FF1657" opacity="1.000000" stroke="none" 
	d="
M2162.030029,655.016663 
	C2198.075439,654.051575 2234.104248,654.014832 2271.068359,654.878662 
	C2272.669189,661.686340 2273.909424,667.592896 2273.915039,673.500610 
	C2274.028809,791.345276 2273.999756,909.189941 2274.001465,1027.034668 
	C2274.001465,1033.237549 2274.019775,1039.440430 2274.029785,1045.643311 
	C2237.322998,1045.712158 2200.616455,1045.781006 2162.981201,1045.744873 
	C2162.039551,915.741394 2162.026611,785.843201 2162.030029,655.016663 
z"/>
<path fill="#FF0A4E" opacity="1.000000" stroke="none" 
	d="
M2274.958984,1045.757935 
	C2274.019775,1039.440430 2274.001465,1033.237549 2274.001465,1027.034668 
	C2273.999756,909.189941 2274.028809,791.345276 2273.915039,673.500610 
	C2273.909424,667.592896 2272.669189,661.686340 2272.005859,654.916504 
	C2304.713867,654.016724 2337.420410,653.979736 2371.066406,654.837341 
	C2372.670898,666.297058 2373.899658,676.861389 2373.913086,687.427368 
	C2374.053955,797.934570 2374.045654,908.442017 2373.913818,1018.949219 
	C2373.903320,1027.847778 2372.672852,1036.744751 2372.009277,1045.642456 
	C2339.968994,1045.719116 2307.928711,1045.795776 2274.958984,1045.757935 
z"/>
<path fill="#FF054A" opacity="1.000000" stroke="none" 
	d="
M2372.938965,1045.766479 
	C2372.672852,1036.744751 2373.903320,1027.847778 2373.913818,1018.949219 
	C2374.045654,908.442017 2374.053955,797.934570 2373.913086,687.427368 
	C2373.899658,676.861389 2372.670898,666.297058 2372.003174,654.876953 
	C2398.550049,653.976318 2425.099854,653.895142 2451.649902,653.935486 
	C2454.581543,653.939941 2457.511963,654.639160 2461.201172,655.330566 
	C2461.974365,785.033264 2461.989502,914.421753 2462.009033,1044.721924 
	C2432.632080,1045.719238 2403.250244,1045.804932 2372.938965,1045.766479 
z"/>
</svg>