<svg width="18" height="18" viewBox="0 0 18 18" fill="none" xmlns="http://www.w3.org/2000/svg">
<path d="M16.5669 8.12384C16.5288 7.40871 16.4526 6.66498 16.3383 5.92125L16.3097 5.73055C16.2812 5.56845 16.2336 5.36822 16.1574 5.12031C15.7859 3.90936 14.5003 3.3754 14.3574 3.31819C13.9574 3.15609 13.2051 2.96539 13.167 2.94632C12.7384 2.84144 12.3099 2.76516 11.8718 2.68888L12.6623 2.35515C13.0051 2.23119 13.2718 1.98328 13.4146 1.67816C13.5575 1.35397 13.5384 0.991642 13.3765 0.676986C13.1575 0.257446 12.7099 0 12.2147 0C11.9861 0 11.7575 0.0572101 11.5385 0.17163L9.00524 1.69723L7.7291 0.734197C7.49101 0.533961 7.19579 0.429076 6.88151 0.429076C6.49105 0.429076 6.12916 0.591171 5.8625 0.886757C5.62442 1.16327 5.52918 1.53514 5.60537 1.88793C5.67203 2.21212 5.87203 2.48864 6.17678 2.66981C5.71013 2.73655 5.23395 2.82237 4.75778 2.94632C4.05305 3.11795 3.69115 3.27051 3.59592 3.31819C2.82452 3.65191 2.25311 4.17634 1.94836 4.83426C1.91979 4.901 1.8817 4.98682 1.8436 5.08217C1.82456 5.13938 1.7198 5.42543 1.66266 5.73055C1.47219 6.78893 1.37695 7.91407 1.37695 9.19176C1.37695 10.6983 1.53885 12.1858 1.85313 13.616C1.99598 14.2644 2.29121 14.6363 2.40549 14.7602C2.815 15.256 3.40545 15.6088 4.07209 15.7423L4.17685 15.7614C5.75774 16.057 7.37673 16.2 8.99572 16.2C10.6147 16.2 12.2432 16.0474 13.8336 15.7519L13.9289 15.7328C15.0431 15.5039 15.9193 14.6744 16.1478 13.616C16.4621 12.1667 16.624 10.6697 16.624 9.18222C16.624 8.83896 16.6145 8.48617 16.5954 8.10477L16.5669 8.12384ZM6.48153 1.36351C6.48153 1.36351 6.52914 1.31583 6.55772 1.29676C6.55772 1.29676 6.57676 1.28723 6.58629 1.27769C6.60533 1.26816 6.62438 1.24909 6.64343 1.23955C6.65295 1.23955 6.672 1.23955 6.68152 1.23002C6.70057 1.23002 6.71961 1.22048 6.73866 1.21095C6.74818 1.21095 6.76723 1.21095 6.77675 1.21095C6.7958 1.21095 6.81485 1.21095 6.8339 1.21095C6.85294 1.21095 6.86247 1.21095 6.88151 1.21095C6.89104 1.21095 6.91008 1.21095 6.91961 1.21095C6.93865 1.21095 6.9577 1.21095 6.97675 1.22048C6.98627 1.22048 6.99579 1.22048 7.01484 1.22048C7.03389 1.22048 7.05294 1.23955 7.07198 1.24909C7.07198 1.24909 7.09103 1.24909 7.10055 1.25862C7.12912 1.27769 7.15769 1.28723 7.17674 1.31583L8.63383 2.4219C8.63383 2.4219 8.68145 2.4505 8.71002 2.46957C8.71954 2.46957 8.72906 2.47911 8.74811 2.48864C8.75763 2.48864 8.76716 2.48864 8.77668 2.49818C8.80525 2.50771 8.83382 2.51725 8.86239 2.52678C8.86239 2.52678 8.87192 2.52678 8.88144 2.52678C8.91001 2.52678 8.93858 2.52678 8.96715 2.52678C8.96715 2.52678 8.96715 2.52678 8.97667 2.52678C9.01477 2.52678 9.05286 2.52678 9.09096 2.51725C9.13857 2.51725 9.17667 2.48864 9.22428 2.46004C9.23381 2.46004 9.24333 2.4505 9.26238 2.44097L11.948 0.829547C11.948 0.829547 12.0242 0.800942 12.0623 0.781872C12.0718 0.781872 12.0813 0.781872 12.1004 0.781872C12.1289 0.781872 12.1575 0.781872 12.1861 0.772337C12.1956 0.772337 12.2147 0.772337 12.2242 0.772337C12.2623 0.772337 12.3004 0.772337 12.3385 0.781872C12.3765 0.791407 12.4146 0.810477 12.4432 0.820012C12.4527 0.820012 12.4623 0.829547 12.4718 0.839082C12.5004 0.858152 12.5194 0.867687 12.5384 0.886757C12.5384 0.886757 12.5575 0.905827 12.567 0.905827C12.5956 0.934432 12.6146 0.963037 12.6337 1.00118C12.767 1.24909 12.6337 1.54467 12.348 1.64002L10.3195 2.50771L9.86236 2.69841L9.40523 2.88911C9.40523 2.88911 9.38618 2.88911 9.37666 2.89865C9.34809 2.90818 9.31 2.92725 9.28142 2.93679C9.2719 2.93679 9.25285 2.93679 9.24333 2.94632C9.21476 2.94632 9.19571 2.96539 9.16714 2.96539C9.1481 2.96539 9.13857 2.96539 9.12905 2.96539C9.11 2.96539 9.08143 2.96539 9.06239 2.97493C9.04334 2.97493 9.03382 2.97493 9.01477 2.97493C8.99572 2.97493 8.97667 2.97493 8.95763 2.97493C8.93858 2.97493 8.91001 2.97493 8.89096 2.97493C8.87192 2.97493 8.86239 2.97493 8.84335 2.97493C8.8243 2.97493 8.79573 2.97493 8.77668 2.96539C8.75763 2.96539 8.74811 2.96539 8.72906 2.95586C8.70049 2.95586 8.67192 2.93679 8.65288 2.92725C8.64335 2.92725 8.62431 2.92725 8.61478 2.91772C8.59574 2.91772 8.57669 2.90818 8.56716 2.89865C8.53859 2.89865 8.51955 2.87958 8.49098 2.87004L8.10052 2.69841L7.66244 2.50771L6.59581 2.03096C6.32915 1.89747 6.30058 1.55421 6.472 1.35397L6.48153 1.36351ZM4.26256 14.7793C3.84353 14.6935 3.46259 14.4646 3.20546 14.1404L3.18641 14.1214C3.18641 14.1214 2.95785 13.883 2.85309 13.4158C2.55786 12.0523 2.40549 10.6315 2.40549 9.19176C2.40549 7.98081 2.4912 6.90335 2.68167 5.90218C2.72928 5.65427 2.815 5.39682 2.82452 5.38729C2.84357 5.33008 2.87214 5.27287 2.89118 5.21566C3.09118 4.77704 3.47211 4.43378 4.02447 4.19541C4.02447 4.19541 4.33875 4.05238 5.00539 3.89029C6.07202 3.62331 7.18626 3.51842 7.95766 3.47075C8.15766 3.46121 8.34813 3.45168 8.49098 3.44214H9.49094C9.67189 3.44214 9.84331 3.45168 10.0243 3.47075C10.9956 3.52796 11.9575 3.67098 12.8908 3.89982C12.8908 3.89982 13.6051 4.08099 13.9384 4.22401C13.9384 4.22401 14.8907 4.58634 15.1384 5.38729C15.1955 5.57799 15.2431 5.75915 15.2622 5.87357L15.2907 6.05474C15.405 6.7794 15.4812 7.48499 15.5098 8.17151C15.5288 8.53384 15.5383 8.86757 15.5383 9.20129C15.5383 10.6315 15.386 12.0523 15.0812 13.4444C14.9384 14.1118 14.3765 14.6363 13.6717 14.7888H13.5956C10.5671 15.3705 7.37673 15.3705 4.34827 14.8079L4.25304 14.7888L4.26256 14.7793ZM5.35776 3.48982L7.4434 3.13702Z" fill="white"/>
<path d="M12.6335 1.01259C12.7669 1.2605 12.6335 1.55608 12.3478 1.65143L9.41462 2.90052C9.07178 3.04355 8.83369 3.01494 8.50037 2.88145L6.6052 2.04237C6.33854 1.90888 6.30997 1.56562 6.48139 1.36538C6.66234 1.16515 6.97661 1.13654 7.17661 1.31771L8.6337 2.42377C8.7956 2.54773 8.95749 2.55726 9.09082 2.52866C9.14796 2.51912 9.18606 2.49052 9.26224 2.46191L11.9479 0.850493C12.1955 0.717003 12.5097 0.793283 12.6335 1.03166V1.01259Z" fill="#0545B1"/>
<mask id="mask0_3954_37509" style="mask-type:luminance" maskUnits="userSpaceOnUse" x="2" y="3" width="14" height="13">
<path d="M2.62607 13.4612C2.32132 12.0786 2.16895 10.6579 2.16895 9.1895C2.16895 8.05483 2.24513 6.93924 2.44513 5.85224C2.49274 5.58526 2.5975 5.30875 2.5975 5.30875C2.80702 4.68897 3.29271 4.25989 3.92126 3.99291C3.92126 3.99291 4.23554 3.84035 4.9498 3.66872C6.87353 3.19197 8.94012 3.21104 8.94012 3.21104H9.03536C10.3972 3.21104 11.7115 3.38267 12.9685 3.67826C12.9685 3.67826 13.7019 3.86896 14.0447 4.00245C14.0447 4.00245 15.1018 4.39338 15.378 5.30875C15.3875 5.34689 15.4732 5.6234 15.5113 5.82364C15.6923 6.92017 15.797 8.0453 15.797 9.17997C15.797 10.6484 15.6351 12.0786 15.3399 13.4612C15.178 14.2145 14.5494 14.8056 13.7495 14.9773C13.7209 14.9773 13.7019 14.9773 13.6733 14.9868C12.1591 15.2728 10.5972 15.4159 8.99726 15.4159C7.39732 15.4159 5.845 15.2728 4.34029 14.9868C4.3022 14.9868 4.27363 14.9773 4.23554 14.9677C3.74984 14.8628 3.33081 14.6054 3.03558 14.2431C3.03558 14.2431 2.76892 13.9761 2.64512 13.4326L2.62607 13.4612Z" fill="white"/>
</mask>
<g mask="url(#mask0_3954_37509)">
<path d="M16.3872 6.11326C16.1777 4.66394 15.8253 3.84393 13.8159 3.41485C12.0064 3.03345 10.7017 2.95717 9.62557 2.9095C9.39701 2.89996 9.16844 2.89996 8.93988 2.9095C7.86373 2.95717 6.55902 3.03345 4.74956 3.41485C2.74011 3.84393 2.38774 4.66394 2.17822 6.11326C1.97823 7.53398 1.98776 9.25028 1.98776 9.29796C1.98776 9.34563 1.96871 11.0619 2.17822 12.4827C2.38774 13.932 2.74011 14.752 4.74956 15.1811C6.55902 15.5625 7.86373 15.5434 8.93988 15.5815C9.16844 15.5911 9.39701 15.5911 9.62557 15.5815C10.7017 15.5339 12.0064 15.5625 13.8159 15.1811C15.8253 14.752 16.1777 13.932 16.3872 12.4827C16.5872 11.0619 16.5777 9.34563 16.5777 9.29796C16.5777 9.25028 16.5967 7.53398 16.3872 6.11326Z" fill="#0545B1"/>
<path d="M11.3215 7.4117C11.3025 6.91588 11.293 6.42005 11.293 5.92423C11.293 5.24725 11.8168 4.98027 11.8168 4.98027C12.1596 4.78003 12.6263 4.74189 13.0262 4.91352C13.6453 5.17097 14.4548 5.5619 14.4548 5.5619C14.9214 5.79074 15.3023 5.98144 15.788 6.27703C15.8166 6.28656 15.8357 6.30563 15.8642 6.31517C16.3785 6.62029 16.569 7.2496 16.2833 7.76449C16.188 7.93612 16.0547 8.06961 15.9023 8.16496C15.4452 8.45101 15.0547 8.72753 14.5881 9.00404C13.8357 9.45219 13.3596 9.66196 13.3596 9.66196C13.0262 9.84313 12.4453 9.91941 12.0453 9.73824C11.4358 9.45219 11.4073 8.78474 11.4073 8.78474C11.4073 8.78474 11.3501 8.23171 11.312 7.4117H11.3215Z" fill="#00BBED"/>
<path d="M12.1218 11.3017C10.598 12.627 7.3029 12.627 5.81724 11.3017C5.70296 11.1968 5.51249 11.1968 5.39821 11.3112C5.28393 11.4256 5.28393 11.5973 5.39821 11.7021C7.11243 13.2277 10.7694 13.2373 12.5218 11.7021C12.6456 11.5973 12.6551 11.4161 12.5408 11.3017C12.4265 11.1872 12.2361 11.1777 12.1218 11.2921V11.3017Z" fill="white"/>
<path d="M10.9114 9.09002C10.9114 9.09002 10.9114 9.09002 10.9114 9.08049V8.99467L10.7019 6.88743V6.83022C10.7019 6.83022 10.6829 6.73487 10.6734 6.69673C10.5591 6.28673 10.1972 5.96254 9.74958 5.88626C9.68292 5.87672 9.62578 5.86719 9.55912 5.86719H8.40678C8.34964 5.86719 8.2925 5.86719 8.23535 5.87672C7.7687 5.94347 7.39729 6.26766 7.28301 6.6872C7.28301 6.72534 7.26396 6.76348 7.26396 6.79208V6.9065L7.04492 8.99467V9.04235C7.04492 9.04235 7.04492 9.06142 7.04492 9.08049C7.04492 9.09002 7.04492 9.10909 7.04492 9.11863C7.04492 9.62399 7.40681 10.0435 7.90203 10.1675C7.99727 10.1866 8.0925 10.2056 8.19726 10.2056H9.75911C9.82577 10.2056 9.88291 10.2056 9.94958 10.1866C10.5019 10.1007 10.9114 9.65259 10.9114 9.11863C10.9114 9.10909 10.9114 9.09002 10.9114 9.08049V9.09002Z" fill="#1AC62F"/>
<path d="M6.57847 7.9256C6.13087 9.31771 4.80711 10.0233 3.3405 9.78492C1.81674 9.53701 0.721546 7.51559 1.4739 6.27604C2.12149 5.20811 3.54049 4.42624 5.01663 4.84578C6.57847 5.29393 7.01655 6.52395 6.56895 7.9256H6.57847Z" fill="#F2338A"/>
<path d="M14.4262 7.25521C14.4262 7.76056 13.9881 8.17057 13.4548 8.17057C12.9215 8.17057 12.4834 7.76056 12.4834 7.25521C12.4834 6.74985 12.9215 6.33984 13.4548 6.33984C13.9881 6.33984 14.4262 6.74985 14.4262 7.25521Z" fill="#1A1919"/>
<path d="M4.36006 8.17057C4.89655 8.17057 5.33146 7.76075 5.33146 7.25521C5.33146 6.74967 4.89655 6.33984 4.36006 6.33984C3.82358 6.33984 3.38867 6.74967 3.38867 7.25521C3.38867 7.76075 3.82358 8.17057 4.36006 8.17057Z" fill="#1A1919"/>
</g>
</svg>
