<svg width="138" height="35" viewBox="0 0 138 35" fill="none" xmlns="http://www.w3.org/2000/svg">
<path d="M56.386 10.6H59.95V26H56.386V10.6ZM49.39 26H45.826V10.6H49.39V26ZM56.65 19.686H49.126V16.672H56.65V19.686ZM71.0736 26.264C69.8562 26.264 68.7269 26.066 67.6856 25.67C66.6589 25.274 65.7642 24.7167 65.0016 23.998C64.2536 23.2793 63.6669 22.436 63.2416 21.468C62.8309 20.5 62.6256 19.444 62.6256 18.3C62.6256 17.156 62.8309 16.1 63.2416 15.132C63.6669 14.164 64.2609 13.3207 65.0236 12.602C65.7862 11.8833 66.6809 11.326 67.7076 10.93C68.7342 10.534 69.8489 10.336 71.0516 10.336C72.2689 10.336 73.3836 10.534 74.3956 10.93C75.4222 11.326 76.3096 11.8833 77.0576 12.602C77.8202 13.3207 78.4142 14.164 78.8396 15.132C79.2649 16.0853 79.4776 17.1413 79.4776 18.3C79.4776 19.444 79.2649 20.5073 78.8396 21.49C78.4142 22.458 77.8202 23.3013 77.0576 24.02C76.3096 24.724 75.4222 25.274 74.3956 25.67C73.3836 26.066 72.2762 26.264 71.0736 26.264ZM71.0516 23.228C71.7409 23.228 72.3716 23.1107 72.9436 22.876C73.5302 22.6413 74.0436 22.304 74.4836 21.864C74.9236 21.424 75.2609 20.9033 75.4956 20.302C75.7449 19.7007 75.8696 19.0333 75.8696 18.3C75.8696 17.5667 75.7449 16.8993 75.4956 16.298C75.2609 15.6967 74.9236 15.176 74.4836 14.736C74.0582 14.296 73.5522 13.9587 72.9656 13.724C72.3789 13.4893 71.7409 13.372 71.0516 13.372C70.3622 13.372 69.7242 13.4893 69.1376 13.724C68.5656 13.9587 68.0596 14.296 67.6196 14.736C67.1796 15.176 66.8349 15.6967 66.5856 16.298C66.3509 16.8993 66.2336 17.5667 66.2336 18.3C66.2336 19.0187 66.3509 19.686 66.5856 20.302C66.8349 20.9033 67.1722 21.424 67.5976 21.864C68.0376 22.304 68.5509 22.6413 69.1376 22.876C69.7242 23.1107 70.3622 23.228 71.0516 23.228ZM79.9172 26L86.7812 10.6H90.3012L97.1872 26H93.4472L87.8152 12.404H89.2232L83.5692 26H79.9172ZM83.3492 22.7L84.2952 19.994H92.2152L93.1832 22.7H83.3492ZM100.55 26.176C99.9633 26.176 99.4573 25.978 99.032 25.582C98.6213 25.1713 98.416 24.6507 98.416 24.02C98.416 23.3893 98.6213 22.8833 99.032 22.502C99.4573 22.106 99.9633 21.908 100.55 21.908C101.151 21.908 101.657 22.106 102.068 22.502C102.479 22.8833 102.684 23.3893 102.684 24.02C102.684 24.6507 102.479 25.1713 102.068 25.582C101.657 25.978 101.151 26.176 100.55 26.176ZM105.252 26V10.6H112.248C113.92 10.6 115.394 10.9227 116.67 11.568C117.946 12.1987 118.943 13.086 119.662 14.23C120.38 15.374 120.74 16.7307 120.74 18.3C120.74 19.8547 120.38 21.2113 119.662 22.37C118.943 23.514 117.946 24.4087 116.67 25.054C115.394 25.6847 113.92 26 112.248 26H105.252ZM108.816 23.074H112.072C113.098 23.074 113.986 22.8833 114.734 22.502C115.496 22.106 116.083 21.5487 116.494 20.83C116.919 20.1113 117.132 19.268 117.132 18.3C117.132 17.3173 116.919 16.474 116.494 15.77C116.083 15.0513 115.496 14.5013 114.734 14.12C113.986 13.724 113.098 13.526 112.072 13.526H108.816V23.074ZM123.428 26V10.6H130.094C131.472 10.6 132.66 10.8273 133.658 11.282C134.655 11.722 135.425 12.36 135.968 13.196C136.51 14.032 136.782 15.0293 136.782 16.188C136.782 17.332 136.51 18.322 135.968 19.158C135.425 19.9793 134.655 20.61 133.658 21.05C132.66 21.49 131.472 21.71 130.094 21.71H125.408L126.992 20.148V26H123.428ZM133.218 26L129.368 20.412H133.174L137.068 26H133.218ZM126.992 20.544L125.408 18.872H129.896C130.996 18.872 131.817 18.6373 132.36 18.168C132.902 17.684 133.174 17.024 133.174 16.188C133.174 15.3373 132.902 14.6773 132.36 14.208C131.817 13.7387 130.996 13.504 129.896 13.504H125.408L126.992 11.81V20.544Z" fill="#5429FF"/>
<path d="M26.6159 8.48909L22.4703 1.76436C22.163 1.26699 21.7546 0.859004 21.2789 0.574215C20.8032 0.289426 20.274 0.136032 19.7349 0.126744L11.8675 0H11.8513C7.78945 0 4.67299 0.762921 2.66583 4.48627C0.797138 7.95209 0 13.8559 0 24.2267V25.4942H2.57885L0.918754 35H3.21917L4.87926 25.4942H5.64345C7.48687 25.5127 9.26278 24.7162 10.5877 23.2768C11.7854 21.9899 12.6494 20.2292 13.0863 18.1853L13.0902 18.167L15.0261 7.75001H12.7201L10.8874 17.6113C10.3293 20.2001 8.66031 22.9593 5.64345 22.9593H2.26161C2.32292 13.9869 3.05043 8.6674 4.59695 5.79862C5.89494 3.39049 7.7922 2.53568 11.8434 2.53449L19.7025 2.66123C19.8822 2.6643 20.0586 2.71542 20.2172 2.81035C20.3757 2.90528 20.5119 3.04129 20.6143 3.2071L25.3038 10.8133L31.6033 11.9923V13.3357L30.5528 19.627C30.2428 21.4839 29.7128 22.4193 27.5394 22.7125L18.6293 24.4242L18.5704 35H20.8278L20.8749 26.5641L27.8375 25.2254C29.4148 25.0077 30.5786 24.4368 31.3947 23.4809C32.0924 22.6635 32.517 21.6193 32.7716 20.0943L33.8607 13.5713V9.84493L26.6159 8.48909Z" fill="#5429FF"/>
</svg>
