<svg width="40" height="29" viewBox="0 0 40 29" fill="none" xmlns="http://www.w3.org/2000/svg">
<g clip-path="url(#clip0_1427_37121)">
<path d="M10.3809 11.3933L5.98789 6.75186C5.53008 6.26816 5.53008 5.48482 5.98789 5.00112L10.3809 0.358872C10.8387 -0.124832 11.5801 -0.124832 12.0379 0.358872L16.4309 5.00029C16.8887 5.484 16.8887 6.26733 16.4309 6.75104L12.0379 11.3925C11.5801 11.8762 10.8379 11.8762 10.3809 11.3925V11.3933Z" fill="#FFC41B"/>
<path d="M27.959 11.3972L23.566 6.75577C23.1082 6.27207 23.1082 5.48873 23.566 5.00502L27.959 0.362779C28.4168 -0.120926 29.159 -0.120926 29.616 0.362779L34.009 5.0042C34.4668 5.4879 34.4668 6.27124 34.009 6.75495L29.616 11.3964C29.1582 11.8801 28.416 11.8801 27.959 11.3964V11.3972Z" fill="#FF9F1D"/>
<path d="M37.5731 27.7623L2.42773 27.7623C1.78086 27.7623 1.25586 27.2076 1.25586 26.5241L1.25586 1.23856C1.25586 0.737526 1.5418 0.286013 1.9793 0.0945123C2.4168 -0.0969886 2.92148 0.00866707 3.25664 0.362779L11.2145 8.77066L19.1715 0.362779C19.6293 -0.120926 20.3707 -0.120926 20.8285 0.362779L28.7863 8.77066L36.7449 0.362779C37.0801 0.00866707 37.584 -0.0969886 38.0223 0.0945123C38.4606 0.286013 38.7457 0.737526 38.7457 1.23856V26.5241C38.7457 27.2076 38.2207 27.7623 37.5738 27.7623H37.5731Z" fill="#FFE830"/>
<path d="M38.7484 26.5278V1.24222C38.7484 0.741176 38.4633 0.289663 38.025 0.0981625C37.5867 -0.0933384 37.0828 0.0123172 36.7477 0.366429L28.7898 8.77431L20.8328 0.366429C20.6039 0.125402 20.3039 0.0040629 20.0039 0.0040629V27.7659H37.5766C38.2234 27.7659 38.7484 27.2112 38.7484 26.5278Z" fill="#FFCF45"/>
<path d="M19.1734 22.0082L15.4078 18.0296C14.95 17.5459 14.95 16.7618 15.4078 16.2789L19.1734 12.3003C19.6313 11.8166 20.3727 11.8166 20.8305 12.3003L24.5961 16.2789C25.0539 16.7626 25.0539 17.5467 24.5961 18.0296L20.8305 22.0082C20.3727 22.4919 19.6305 22.4919 19.1734 22.0082Z" fill="#FF8A00"/>
<path d="M24.5965 18.0292C25.0543 17.5455 25.0543 16.7613 24.5965 16.2785L20.8309 12.2999C20.602 12.058 20.302 11.9375 20.002 11.9375V22.371C20.302 22.371 20.602 22.2505 20.8309 22.0086L24.5965 18.03V18.0292Z" fill="#F85900"/>
<path d="M38.832 28.9997L1.17578 28.9997C0.528906 28.9997 0.00390625 28.445 0.00390625 27.7616C0.00390625 27.0781 0.528906 26.5234 1.17578 26.5234L38.832 26.5234C39.4789 26.5234 40.0039 27.0781 40.0039 27.7616C40.0039 28.445 39.4789 28.9997 38.832 28.9997Z" fill="#FFC41B"/>
<path d="M39.998 27.7577C39.998 27.0742 39.473 26.5195 38.8262 26.5195H19.998V28.9958H38.8262C39.473 28.9958 39.998 28.4411 39.998 27.7577Z" fill="#FF9F1D"/>
</g>
<defs>
<clipPath id="clip0_1427_37121">
<rect width="40" height="29" fill="white"/>
</clipPath>
</defs>
</svg>
