<svg width="24" height="17" viewBox="0 0 24 17" fill="none" xmlns="http://www.w3.org/2000/svg">
<g clip-path="url(#clip0_1427_37112)">
<path d="M6.22852 6.68111L3.59273 3.96028C3.31805 3.67673 3.31805 3.21753 3.59273 2.93398L6.22852 0.212663C6.5032 -0.0708878 6.94805 -0.0708878 7.22273 0.212663L9.85852 2.9335C10.1332 3.21705 10.1332 3.67624 9.85852 3.9598L7.22273 6.68063C6.94805 6.96418 6.50273 6.96418 6.22852 6.68063V6.68111Z" fill="#C1C1C1"/>
<path d="M16.7754 6.68111L14.1396 3.96028C13.8649 3.67673 13.8649 3.21753 14.1396 2.93398L16.7754 0.212663C17.0501 -0.0708878 17.4954 -0.0708878 17.7696 0.212663L20.4054 2.9335C20.6801 3.21705 20.6801 3.67624 20.4054 3.9598L17.7696 6.68063C17.4949 6.96418 17.0496 6.96418 16.7754 6.68063V6.68111Z" fill="#ABABAB"/>
<path d="M22.5442 16.2744H1.45703C1.06891 16.2744 0.753906 15.9493 0.753906 15.5486L0.753906 0.726055C0.753906 0.432343 0.925469 0.167663 1.18797 0.0554038C1.45047 -0.0568554 1.75328 0.00508069 1.95438 0.212663L6.72906 5.14142L11.5033 0.212663C11.778 -0.0708878 12.2228 -0.0708878 12.4975 0.212663L17.2722 5.14142L22.0473 0.212663C22.2484 0.00508069 22.5508 -0.0568554 22.8138 0.0554038C23.0767 0.167663 23.2478 0.432343 23.2478 0.726055V15.5486C23.2478 15.9493 22.9328 16.2744 22.5447 16.2744H22.5442Z" fill="#EBEBEB"/>
<path d="M23.2487 15.5485V0.725905C23.2487 0.432193 23.0776 0.167513 22.8146 0.0552536C22.5516 -0.0570055 22.2493 0.00493058 22.0482 0.212513L17.2735 5.14127L12.4993 0.212513C12.362 0.0712215 12.182 9.18314e-05 12.002 9.18314e-05L12.002 16.2743H22.5455C22.9337 16.2743 23.2487 15.9491 23.2487 15.5485Z" fill="#D8D8D8"/>
<path d="M11.5045 12.9035L9.24508 10.5712C8.97039 10.2877 8.97039 9.82801 9.24508 9.54494L11.5045 7.21266C11.7791 6.92911 12.224 6.92911 12.4987 7.21266L14.758 9.54494C15.0327 9.82849 15.0327 10.2882 14.758 10.5712L12.4987 12.9035C12.224 13.1871 11.7787 13.1871 11.5045 12.9035Z" fill="#999999"/>
<path d="M14.7587 10.5671C15.0334 10.2835 15.0334 9.82386 14.7587 9.5408L12.4993 7.20852C12.362 7.06674 12.182 6.99609 12.002 6.99609V13.1123C12.182 13.1123 12.362 13.0416 12.4993 12.8999L14.7587 10.5676V10.5671Z" fill="#636363"/>
<path d="M23.3008 16.9985H0.707031C0.318906 16.9985 0.00390625 16.6733 0.00390625 16.2727C0.00390625 15.872 0.318906 15.5469 0.707031 15.5469L23.3008 15.5469C23.6889 15.5469 24.0039 15.872 24.0039 16.2727C24.0039 16.6733 23.6889 16.9985 23.3008 16.9985Z" fill="#AFAFAF"/>
<path d="M23.998 16.2727C23.998 15.872 23.683 15.5469 23.2949 15.5469H11.998V16.9985H23.2949C23.683 16.9985 23.998 16.6733 23.998 16.2727Z" fill="#A7A7A7"/>
</g>
<defs>
<clipPath id="clip0_1427_37112">
<rect width="24" height="17" fill="white"/>
</clipPath>
</defs>
</svg>
