<svg width="74" height="24" viewBox="0 0 74 24" fill="none" xmlns="http://www.w3.org/2000/svg">
<path d="M37.189 11.0023H30.5793V9.31344H37.189V7.44055H30.5793V5.93194H37.189V4.06641H28.2307V12.8642H37.189V11.0023Z" fill="white"/>
<path d="M65.6789 7.54726L71.2334 12.8642H72.9994V4.06641H70.6545V9.39071L65.1037 4.06641H63.334V12.8642H65.6789V7.54726Z" fill="white"/>
<path d="M60.8098 4.06641H51.1406V12.8679H60.8098V4.06641ZM58.4648 11.0023H53.4855V5.93194H58.4648V11.0023Z" fill="white"/>
<path d="M18.382 7.54726L23.9366 12.8642H25.7026V4.06641H23.365V9.39071L17.8105 4.06641H16.0371V12.8642H18.382V7.54726Z" fill="white"/>
<path d="M44.1721 10.1487L46.572 12.8679H49.5361L45.6523 8.47082L49.5434 4.06641H46.5757L44.1721 6.79295L41.7649 4.06641H38.8008L42.6882 8.47082L38.8081 12.8679H41.7722L44.1721 10.1487Z" fill="white"/>
<path d="M1 12.9062V20.3058L10.779 15.0809L1 12.9062Z" fill="#00A0DF"/>
<path d="M10.779 1L1 6.22127V12.9033L10.779 15.0779V1Z" fill="#003DA6"/>
<path d="M10.779 15.0781L1 20.3031L13.1313 23.0002L22.9103 17.7789L10.779 15.0781Z" fill="#C2D500"/>
</svg>
