<svg width="18" height="18" viewBox="0 0 18 18" fill="none" xmlns="http://www.w3.org/2000/svg">
<path d="M16.906 4.81966C16.7159 4.10303 16.1576 3.53987 15.4473 3.34804C14.1597 3 8.99982 3 8.99982 3C8.99982 3 3.83995 3 2.55371 3.34804C1.84337 3.53987 1.28514 4.10303 1.09499 4.81966C0.75 6.11726 0.75 8.82619 0.75 8.82619C0.75 8.82619 0.75 11.5351 1.09499 12.8327C1.28514 13.5494 1.84337 14.1125 2.55371 14.3043C3.83995 14.6524 8.99982 14.6524 8.99982 14.6524C8.99982 14.6524 14.1597 14.6524 15.4459 14.3043C16.1563 14.1125 16.7145 13.5494 16.9047 12.8327C17.2496 11.5351 17.2496 8.82619 17.2496 8.82619C17.2496 8.82619 17.2496 6.11726 16.9047 4.81966H16.906Z" fill="#FF0000"/>
<path d="M7.35156 11.2001L11.6395 8.70358L7.35156 6.20703V11.2001Z" fill="white"/>
</svg>
