<svg width="386" height="329" viewBox="0 0 386 329" fill="none" xmlns="http://www.w3.org/2000/svg">
<g clip-path="url(#clip0_1427_37054)">
<path d="M-3.55057 110.511L151.429 105.535L3.02197 60.6219C2.44669 60.4206 2.67679 59.5434 3.28082 59.6728L154.262 94.9791L22.5382 13.1777C22.0205 12.8326 22.4807 12.056 23.0272 12.3148L159.727 85.4874L53.6607 -27.6223C53.258 -28.0825 53.8908 -28.7297 54.3654 -28.327L167.465 77.7358L94.2897 -58.9594C94.0164 -59.5059 94.8074 -59.9661 95.1526 -59.4483L176.957 72.2709L141.649 -78.705C141.534 -79.3091 142.397 -79.5392 142.599 -78.9639L187.513 69.4377L192.504 -85.5362C192.547 -86.1546 193.453 -86.1546 193.496 -85.5362L198.472 69.4377L243.387 -78.9639C243.588 -79.5392 244.466 -79.3091 244.336 -78.705L209.029 72.2709L290.833 -59.4483C291.178 -59.9661 291.955 -59.5059 291.696 -58.9594L218.521 77.7358L331.62 -28.327C332.08 -28.7297 332.728 -28.0969 332.325 -27.6223L226.258 85.473L362.958 12.3005C363.505 12.0272 363.965 12.8182 363.447 13.1633L231.723 94.9647L382.705 59.6584C383.309 59.5434 383.539 60.4062 382.964 60.6076L234.557 105.521L389.536 110.511C390.155 110.554 390.155 111.46 389.536 111.503L234.557 116.479L382.964 161.392C383.553 161.594 383.309 162.471 382.705 162.342L231.723 127.035L363.447 208.837C363.965 209.182 363.505 209.958 362.958 209.7L226.258 136.527L332.325 249.622C332.728 250.082 332.095 250.73 331.62 250.327L218.521 144.264L291.696 280.959C291.969 281.506 291.178 281.966 290.833 281.448L209.029 149.729L244.336 300.705C244.451 301.309 243.588 301.539 243.387 300.964L198.472 152.562L193.496 307.536C193.453 308.155 192.547 308.155 192.504 307.536L187.528 152.562L142.613 300.964C142.412 301.554 141.534 301.309 141.664 300.705L176.971 149.729L95.167 281.448C94.8218 281.966 94.0452 281.506 94.304 280.959L167.479 144.264L54.3798 250.327C53.9196 250.73 53.2724 250.097 53.6751 249.622L159.742 136.527L23.0416 209.7C22.4951 209.973 22.0349 209.182 22.5526 208.837L154.277 127.035L3.29523 162.342C2.69119 162.457 2.46109 161.594 3.03638 161.392L151.443 116.479L-3.53619 111.503C-4.1546 111.46 -4.1546 110.554 -3.53619 110.511H-3.55057ZM195.855 114.725L196.718 113.862L197.336 112.798L197.653 111.618V110.396L197.336 109.217L196.718 108.152L195.855 107.29L194.791 106.671L193.611 106.355H192.389L191.209 106.671L190.145 107.29L189.282 108.152L188.664 109.217L188.347 110.396V111.618L188.664 112.798L189.282 113.862L190.145 114.725L191.209 115.343L192.389 115.66H193.611L194.791 115.343L195.855 114.725Z" fill="url(#paint0_radial_1427_37054)" fill-opacity="0.12"/>
<g filter="url(#filter0_b_1427_37054)">
<rect x="135" y="202" width="116" height="127" fill="url(#paint1_linear_1427_37054)"/>
</g>
<path fill-rule="evenodd" clip-rule="evenodd" d="M163.051 223.327L164.122 223L164.454 224.054C164.956 225.648 164.049 227.342 162.429 227.836L161.358 228.163L161.026 227.109C160.524 225.515 161.431 223.821 163.051 223.327ZM156.856 227.973L156.445 228.999C155.823 230.552 156.598 232.308 158.176 232.92L159.219 233.325L159.631 232.298C160.252 230.746 159.477 228.989 157.899 228.378L156.856 227.973ZM155.188 235.31L155.04 236.403C154.816 238.057 155.999 239.579 157.68 239.799L158.791 239.945L158.939 238.851C159.163 237.197 157.981 235.676 156.3 235.455L155.188 235.31ZM155.035 242.221L155.002 243.324C154.953 244.992 156.289 246.385 157.985 246.433L159.106 246.464L159.138 245.362C159.187 243.693 157.851 242.301 156.155 242.253L155.035 242.221ZM161.613 252.677L161.364 251.601C160.986 249.974 162.022 248.353 163.676 247.981L164.769 247.736L165.018 248.812C165.395 250.439 164.36 252.06 162.706 252.431L161.613 252.677ZM156.532 249.583L156.781 250.659C157.159 252.286 158.806 253.305 160.46 252.934L161.553 252.688L161.304 251.613C160.926 249.985 159.279 248.966 157.625 249.338L156.532 249.583ZM166.73 257.358L166.014 256.51C164.93 255.226 165.108 253.319 166.413 252.253L167.275 251.548L167.992 252.396C169.076 253.679 168.897 255.586 167.593 256.653L166.73 257.358ZM161.495 257.712L160.778 256.864L161.641 256.158C162.945 255.092 164.883 255.268 165.967 256.551L166.684 257.4L165.821 258.105C164.517 259.171 162.579 258.996 161.495 257.712ZM159.17 246.466L159.202 245.363C159.251 243.695 160.666 242.381 162.361 242.429L163.482 242.46L163.45 243.563C163.401 245.231 161.986 246.546 160.29 246.498L159.17 246.466ZM158.855 239.955L159.003 238.861C159.227 237.207 160.773 236.044 162.454 236.264L163.566 236.41L163.418 237.503C163.194 239.158 161.648 240.321 159.967 240.101L158.855 239.955ZM159.688 232.316L159.277 233.343L160.32 233.747C161.898 234.359 163.683 233.596 164.305 232.043L164.716 231.017L163.673 230.612C162.095 230 160.31 230.764 159.688 232.316Z" fill="url(#paint2_linear_1427_37054)"/>
<path fill-rule="evenodd" clip-rule="evenodd" d="M222.951 223.327L221.88 223L221.548 224.054C221.046 225.648 221.953 227.342 223.573 227.836L224.644 228.163L224.976 227.109C225.478 225.515 224.57 223.821 222.951 223.327ZM229.146 227.973L229.557 228.999C230.179 230.552 229.403 232.308 227.826 232.92L226.782 233.325L226.371 232.298C225.749 230.746 226.525 228.989 228.103 228.378L229.146 227.973ZM230.814 235.31L230.962 236.403C231.186 238.057 230.003 239.579 228.322 239.799L227.211 239.945L227.063 238.851C226.839 237.197 228.021 235.676 229.702 235.455L230.814 235.31ZM230.967 242.221L231 243.324C231.049 244.992 229.712 246.385 228.017 246.433L226.896 246.464L226.864 245.362C226.815 243.693 228.151 242.301 229.847 242.253L230.967 242.221ZM224.389 252.677L224.638 251.601C225.015 249.974 223.98 248.353 222.326 247.981L221.233 247.736L220.984 248.812C220.607 250.439 221.642 252.06 223.296 252.431L224.389 252.677ZM229.47 249.583L229.221 250.659C228.843 252.286 227.196 253.305 225.542 252.934L224.449 252.688L224.698 251.613C225.075 249.985 226.723 248.966 228.377 249.338L229.47 249.583ZM219.272 257.358L219.988 256.51C221.072 255.226 220.894 253.319 219.589 252.253L218.727 251.548L218.01 252.396C216.926 253.679 217.105 255.586 218.409 256.653L219.272 257.358ZM224.507 257.712L225.224 256.864L224.361 256.158C223.057 255.092 221.119 255.268 220.035 256.551L219.318 257.4L220.18 258.105C221.485 259.171 223.423 258.996 224.507 257.712ZM226.832 246.466L226.8 245.363C226.751 243.695 225.336 242.381 223.641 242.429L222.52 242.46L222.552 243.563C222.601 245.231 224.016 246.546 225.712 246.498L226.832 246.466ZM227.147 239.955L226.999 238.861C226.775 237.207 225.229 236.044 223.548 236.264L222.436 236.41L222.584 237.503C222.808 239.158 224.354 240.321 226.035 240.101L227.147 239.955ZM226.314 232.316L226.725 233.343L225.682 233.747C224.104 234.359 222.319 233.596 221.697 232.043L221.286 231.017L222.329 230.612C223.907 230 225.692 230.764 226.314 232.316Z" fill="url(#paint3_linear_1427_37054)"/>
<g filter="url(#filter1_b_1427_37054)">
<path d="M33 248H135V329H42.2727L33 248Z" fill="url(#paint4_linear_1427_37054)"/>
</g>
<g filter="url(#filter2_b_1427_37054)">
<path d="M251 278H353L343.727 329H251V278Z" fill="url(#paint5_linear_1427_37054)"/>
</g>
<g filter="url(#filter3_b_1427_37054)">
<path d="M153.413 195H232.587L251 202H135L153.413 195Z" fill="#E0E5FF"/>
</g>
<g filter="url(#filter4_b_1427_37054)">
<path d="M70.0909 239H135V248H33L70.0909 239Z" fill="#B4BFFF"/>
</g>
<g filter="url(#filter5_b_1427_37054)">
<path d="M251 266H315.909L353 278H251V266Z" fill="#ABB7FF"/>
</g>
<rect y="303" width="386" height="40" fill="url(#paint6_linear_1427_37054)"/>
<path opacity="0.31" d="M12.0397 221.672C-2.94583 221.388 -2.91803 208.801 -2.58149 202.148C-2.55684 201.661 -2.18208 201.268 -1.69747 201.213L7.58651 200.159C8.1797 200.091 8.694 200.559 8.79793 201.147C9.58793 205.616 14.9635 209.126 18.8918 210.81C19.5054 211.073 19.74 211.841 19.3463 212.38L12.8582 221.266C12.67 221.524 12.359 221.678 12.0397 221.672Z" fill="url(#paint7_linear_1427_37054)"/>
<path d="M187.775 232.4V227.756H196.451V254H191.267V232.4H187.775Z" fill="white"/>
<path d="M81.4374 282.208C82.9734 280.928 84.1974 279.864 85.1094 279.016C86.0214 278.152 86.7814 277.256 87.3894 276.328C87.9974 275.4 88.3014 274.488 88.3014 273.592C88.3014 272.776 88.1094 272.136 87.7254 271.672C87.3414 271.208 86.7494 270.976 85.9494 270.976C85.1494 270.976 84.5334 271.248 84.1014 271.792C83.6694 272.32 83.4454 273.048 83.4294 273.976H80.1654C80.2294 272.056 80.7974 270.6 81.8694 269.608C82.9574 268.616 84.3334 268.12 85.9974 268.12C87.8214 268.12 89.2214 268.608 90.1974 269.584C91.1734 270.544 91.6614 271.816 91.6614 273.4C91.6614 274.648 91.3254 275.84 90.6534 276.976C89.9814 278.112 89.2134 279.104 88.3494 279.952C87.4854 280.784 86.3574 281.792 84.9654 282.976H92.0454V285.76H80.1894V283.264L81.4374 282.208Z" fill="white"/>
<path d="M294.636 299.112C294.716 297.512 295.276 296.28 296.316 295.416C297.372 294.536 298.756 294.096 300.468 294.096C301.636 294.096 302.636 294.304 303.468 294.72C304.3 295.12 304.924 295.672 305.34 296.376C305.772 297.064 305.988 297.848 305.988 298.728C305.988 299.736 305.724 300.592 305.196 301.296C304.684 301.984 304.068 302.448 303.348 302.688V302.784C304.276 303.072 304.996 303.584 305.508 304.32C306.036 305.056 306.3 306 306.3 307.152C306.3 308.112 306.076 308.968 305.628 309.72C305.196 310.472 304.548 311.064 303.684 311.496C302.836 311.912 301.812 312.12 300.612 312.12C298.804 312.12 297.332 311.664 296.196 310.752C295.06 309.84 294.46 308.496 294.396 306.72H297.66C297.692 307.504 297.956 308.136 298.452 308.616C298.964 309.08 299.66 309.312 300.54 309.312C301.356 309.312 301.98 309.088 302.412 308.64C302.86 308.176 303.084 307.584 303.084 306.864C303.084 305.904 302.78 305.216 302.172 304.8C301.564 304.384 300.62 304.176 299.34 304.176H298.644V301.416H299.34C301.612 301.416 302.748 300.656 302.748 299.136C302.748 298.448 302.54 297.912 302.124 297.528C301.724 297.144 301.14 296.952 300.372 296.952C299.62 296.952 299.036 297.16 298.62 297.576C298.22 297.976 297.988 298.488 297.924 299.112H294.636Z" fill="white"/>
<path d="M127.33 191.916C120.305 188.952 118.233 186.245 116.801 184.633L118.583 176.95C121.788 179.76 124.589 182.041 128.11 183.391L127.33 191.916Z" fill="#6A88FF"/>
</g>
<path d="M366.794 269.069L369.195 268.132C370.253 267.718 370.273 266.228 369.226 265.785L366.682 264.709C366.366 264.576 366.119 264.321 365.994 264.003L365.134 261.805C364.72 260.747 363.23 260.727 362.788 261.774L361.795 264.121C361.668 264.425 361.425 264.665 361.121 264.795L358.774 265.788C357.727 266.23 357.747 267.72 358.805 268.134L361.003 268.994C361.321 269.119 361.576 269.366 361.709 269.682L362.785 272.226C363.228 273.273 364.718 273.253 365.132 272.195L366.069 269.794C366.197 269.463 366.458 269.202 366.788 269.075L366.794 269.069Z" fill="white" fill-opacity="0.84"/>
<path d="M24.8623 283.38L26.4634 282.754C27.1684 282.478 27.1822 281.485 26.4842 281.19L24.7877 280.473C24.5776 280.384 24.4126 280.214 24.3293 280.002L23.7562 278.537C23.4801 277.832 22.4869 277.818 22.1917 278.516L21.5301 280.08C21.445 280.284 21.2835 280.443 21.0804 280.53L19.5158 281.192C18.8178 281.487 18.8316 282.48 19.5366 282.756L21.0022 283.329C21.2141 283.413 21.3842 283.578 21.4728 283.788L22.1899 285.484C22.4851 286.182 23.4784 286.168 23.7545 285.463L24.3796 283.862C24.4647 283.642 24.6383 283.468 24.8589 283.383L24.8623 283.38Z" fill="white" fill-opacity="0.24"/>
<path d="M43.8542 301.466L48.4571 299.669C50.484 298.875 50.524 296.02 48.5171 295.171L43.6396 293.109C43.0355 292.855 42.5612 292.365 42.3216 291.756L40.6741 287.543C39.8804 285.516 37.0248 285.476 36.1761 287.483L34.274 291.981C34.0294 292.565 33.5651 293.024 32.981 293.274L28.4829 295.176C26.476 296.025 26.516 298.88 28.5429 299.674L32.7564 301.322C33.3654 301.561 33.8547 302.036 34.1093 302.64L36.1711 307.517C37.0198 309.524 39.8754 309.484 40.6692 307.457L42.4664 302.854C42.711 302.22 43.2102 301.721 43.8443 301.476L43.8542 301.466Z" fill="#CAD1FF"/>
<path d="M262.941 100.798L257.231 103.453C256.878 103.617 256.647 103.973 256.68 104.36C257.01 108.223 260.318 110.924 263.809 112.326C264.148 112.462 264.532 112.386 264.806 112.145L269.266 108.212C269.825 107.719 269.666 106.807 268.999 106.475C266.113 105.038 264.922 103.413 264.527 101.693C264.364 100.98 263.604 100.49 262.941 100.798Z" fill="url(#paint8_linear_1427_37054)"/>
<path d="M151.351 38.0226C148.109 52.3788 137.705 56.8061 129.57 58.1744C129.13 58.2484 128.699 58.0121 128.514 57.6056L122.707 44.8127C122.444 44.2339 122.785 43.5607 123.396 43.3878C130.766 41.3042 134.391 35.8739 135.729 31.7625C135.921 31.174 136.571 30.8471 137.14 31.0897L150.773 36.9002C151.21 37.0862 151.456 37.5599 151.351 38.0226Z" fill="url(#paint9_linear_1427_37054)"/>
<path opacity="0.2" d="M270.894 145.18C268.635 150.535 266.572 152.114 265.343 153.205L259.487 151.847C261.629 149.405 263.367 147.269 264.396 144.586L270.894 145.18Z" fill="#B8FF44"/>
<path opacity="0.2" d="M31.7577 113.847C26.3287 111.773 24.6801 109.765 23.5476 108.574L24.7043 102.675C27.2186 104.732 29.4122 106.396 32.1292 107.333L31.7577 113.847Z" fill="white"/>
<path opacity="0.2" d="M358.966 71.1311C352.156 79.8874 347.572 81.7789 344.768 83.1836L334.643 77.7873C339.798 74.3424 344.057 71.2643 347.28 66.8256L358.966 71.1311Z" fill="url(#paint10_linear_1427_37054)"/>
<path d="M91.4806 83.9337C91.9339 91.2545 87.9729 92.069 85.2059 92.8841L82.4113 87.2871C84.666 87.0774 85.8009 83.997 85.9456 82.4961L91.4806 83.9337Z" fill="#69DBFF"/>
<path opacity="0.7" d="M370.868 154.971C359.414 154.384 358.079 148.38 357.163 143.709C357.069 143.23 357.335 142.752 357.792 142.578L365.861 139.514C366.516 139.266 367.229 139.761 367.457 140.423C368.348 143.008 371.528 144.764 373.853 145.495C374.444 145.681 374.804 146.319 374.589 146.9L371.844 154.325C371.695 154.728 371.297 154.993 370.868 154.971Z" fill="#69DBFF"/>
<path d="M297.862 136.38L299.463 135.754C300.168 135.478 300.182 134.485 299.484 134.19L297.788 133.473C297.578 133.384 297.413 133.214 297.329 133.002L296.756 131.537C296.48 130.832 295.487 130.818 295.192 131.516L294.53 133.08C294.445 133.284 294.284 133.443 294.08 133.53L292.516 134.192C291.818 134.487 291.832 135.48 292.537 135.756L294.002 136.329C294.214 136.413 294.384 136.578 294.473 136.788L295.19 138.484C295.485 139.182 296.478 139.168 296.754 138.463L297.38 136.862C297.465 136.642 297.638 136.468 297.859 136.383L297.862 136.38Z" fill="white" fill-opacity="0.33"/>
<defs>
<filter id="filter0_b_1427_37054" x="91" y="158" width="204" height="215" filterUnits="userSpaceOnUse" color-interpolation-filters="sRGB">
<feFlood flood-opacity="0" result="BackgroundImageFix"/>
<feGaussianBlur in="BackgroundImageFix" stdDeviation="22"/>
<feComposite in2="SourceAlpha" operator="in" result="effect1_backgroundBlur_1427_37054"/>
<feBlend mode="normal" in="SourceGraphic" in2="effect1_backgroundBlur_1427_37054" result="shape"/>
</filter>
<filter id="filter1_b_1427_37054" x="-11" y="204" width="190" height="169" filterUnits="userSpaceOnUse" color-interpolation-filters="sRGB">
<feFlood flood-opacity="0" result="BackgroundImageFix"/>
<feGaussianBlur in="BackgroundImageFix" stdDeviation="22"/>
<feComposite in2="SourceAlpha" operator="in" result="effect1_backgroundBlur_1427_37054"/>
<feBlend mode="normal" in="SourceGraphic" in2="effect1_backgroundBlur_1427_37054" result="shape"/>
</filter>
<filter id="filter2_b_1427_37054" x="207" y="234" width="190" height="139" filterUnits="userSpaceOnUse" color-interpolation-filters="sRGB">
<feFlood flood-opacity="0" result="BackgroundImageFix"/>
<feGaussianBlur in="BackgroundImageFix" stdDeviation="22"/>
<feComposite in2="SourceAlpha" operator="in" result="effect1_backgroundBlur_1427_37054"/>
<feBlend mode="normal" in="SourceGraphic" in2="effect1_backgroundBlur_1427_37054" result="shape"/>
</filter>
<filter id="filter3_b_1427_37054" x="91" y="151" width="204" height="95" filterUnits="userSpaceOnUse" color-interpolation-filters="sRGB">
<feFlood flood-opacity="0" result="BackgroundImageFix"/>
<feGaussianBlur in="BackgroundImageFix" stdDeviation="22"/>
<feComposite in2="SourceAlpha" operator="in" result="effect1_backgroundBlur_1427_37054"/>
<feBlend mode="normal" in="SourceGraphic" in2="effect1_backgroundBlur_1427_37054" result="shape"/>
</filter>
<filter id="filter4_b_1427_37054" x="-11" y="195" width="190" height="97" filterUnits="userSpaceOnUse" color-interpolation-filters="sRGB">
<feFlood flood-opacity="0" result="BackgroundImageFix"/>
<feGaussianBlur in="BackgroundImageFix" stdDeviation="22"/>
<feComposite in2="SourceAlpha" operator="in" result="effect1_backgroundBlur_1427_37054"/>
<feBlend mode="normal" in="SourceGraphic" in2="effect1_backgroundBlur_1427_37054" result="shape"/>
</filter>
<filter id="filter5_b_1427_37054" x="207" y="222" width="190" height="100" filterUnits="userSpaceOnUse" color-interpolation-filters="sRGB">
<feFlood flood-opacity="0" result="BackgroundImageFix"/>
<feGaussianBlur in="BackgroundImageFix" stdDeviation="22"/>
<feComposite in2="SourceAlpha" operator="in" result="effect1_backgroundBlur_1427_37054"/>
<feBlend mode="normal" in="SourceGraphic" in2="effect1_backgroundBlur_1427_37054" result="shape"/>
</filter>
<radialGradient id="paint0_radial_1427_37054" cx="0" cy="0" r="1" gradientUnits="userSpaceOnUse" gradientTransform="translate(193 111) rotate(90) scale(128.707)">
<stop stop-color="white"/>
<stop offset="1" stop-color="white" stop-opacity="0"/>
</radialGradient>
<linearGradient id="paint1_linear_1427_37054" x1="194.048" y1="201.256" x2="194.048" y2="329" gradientUnits="userSpaceOnUse">
<stop stop-color="#A5B2FF"/>
<stop offset="1" stop-color="#4967FF"/>
</linearGradient>
<linearGradient id="paint2_linear_1427_37054" x1="161.851" y1="223" x2="161.851" y2="258.803" gradientUnits="userSpaceOnUse">
<stop stop-color="white" stop-opacity="0.94"/>
<stop offset="1" stop-color="white" stop-opacity="0.3"/>
</linearGradient>
<linearGradient id="paint3_linear_1427_37054" x1="224.151" y1="223" x2="224.151" y2="258.803" gradientUnits="userSpaceOnUse">
<stop stop-color="white" stop-opacity="0.94"/>
<stop offset="1" stop-color="white" stop-opacity="0.3"/>
</linearGradient>
<linearGradient id="paint4_linear_1427_37054" x1="84.9217" y1="247.525" x2="84.9217" y2="329" gradientUnits="userSpaceOnUse">
<stop stop-color="#97A6FF"/>
<stop offset="1" stop-color="#4967FF"/>
</linearGradient>
<linearGradient id="paint5_linear_1427_37054" x1="302.922" y1="277.701" x2="302.922" y2="329" gradientUnits="userSpaceOnUse">
<stop stop-color="#97A6FF"/>
<stop offset="1" stop-color="#4967FF"/>
</linearGradient>
<linearGradient id="paint6_linear_1427_37054" x1="193" y1="303" x2="193" y2="343" gradientUnits="userSpaceOnUse">
<stop stop-color="#4967FF" stop-opacity="0"/>
<stop offset="1" stop-color="#4967FF"/>
</linearGradient>
<linearGradient id="paint7_linear_1427_37054" x1="22.7163" y1="209.788" x2="-7.01652" y2="209.788" gradientUnits="userSpaceOnUse">
<stop stop-color="#FFF730"/>
<stop offset="1" stop-color="#FFF730" stop-opacity="0"/>
</linearGradient>
<linearGradient id="paint8_linear_1427_37054" x1="265" y1="113" x2="259.5" y2="99" gradientUnits="userSpaceOnUse">
<stop stop-color="#FF77D1"/>
<stop offset="1" stop-color="#FF77D1"/>
</linearGradient>
<linearGradient id="paint9_linear_1427_37054" x1="131.937" y1="63.4551" x2="139.533" y2="25.9377" gradientUnits="userSpaceOnUse">
<stop stop-color="#8FFF00"/>
<stop offset="1" stop-color="#B8FF44"/>
</linearGradient>
<linearGradient id="paint10_linear_1427_37054" x1="352" y1="79.0005" x2="341.5" y2="62.5005" gradientUnits="userSpaceOnUse">
<stop stop-color="white"/>
<stop offset="1" stop-color="white" stop-opacity="0"/>
</linearGradient>
<clipPath id="clip0_1427_37054">
<rect width="386" height="329" fill="white"/>
</clipPath>
</defs>
</svg>
